<svg version="1.1" xmlns="http://www.w3.org/2000/svg" xmlns:xlink="http://www.w3.org/1999/xlink" width="698" height="696"><desc>title%20User%20becomes%20inactive%0A%0Adatabase%20Redis%20%23red%0Acontrol%20Service%0A%0A%0ARedis-%3EService%3AA%20key%20expires%0A%0Anote%20over%20Redis%3AKeyspace%20notification%20%5Cnshould%20be%20enabled%20to%20%5Cnallow%20this%20kind%20of%20interaction.%0A%0Anote%20over%20Redis%3AWe%20will%20only%20monitor%20user%20session%20keys%0A%0A%0AService-%3EService%3ATriggers%20a%20**updateUserStatus**%20to%20**OFFLINE**%0A%0AService-%3ERedis%3AUpdate%20status%20as%20**OFFLINE**%0A%0Anote%20over%20Service%3AThe%20actual%20key%20to%20the%20user%20session%20is%20already%20gone.%5CnWe%20will%20create%20a%20new%20hash%20key%20with%20only%20the%20status%20information.%0A%0AService-%3ERedis%3ASet%20expiration%20time%20to%20**0**%0A%0Anote%20over%20Redis%3AWe%20will%20set%20this%20key%20to%20not%20expire%0A%0A</desc><defs/><g><g/><g/><g/><g/><g/><g/><g/><g/><g/><g/><g/><g/><g/><g/><g/><g/><g><rect fill="white" stroke="none" x="0" y="0" width="698" height="696"/></g><g><text fill="black" stroke="none" font-family="sans-serif" font-size="16.5pt" font-style="normal" font-weight="normal" text-decoration="normal" x="238.01801333267906" y="24.50280495" text-anchor="start" dominant-baseline="alphabetic" xml:space="preserve">User becomes inactive</text></g><g/><g><path fill="none" stroke="black" paint-order="fill stroke markers" d=" M 156.3696728300586 129.701514202 L 156.3696728300586 696.533068712" stroke-miterlimit="10" stroke-width="1.3612669416666667" stroke-dasharray="12.565541,5.445067766666667"/><path fill="none" stroke="black" paint-order="fill stroke markers" d=" M 390.5703774594336 129.701514202 L 390.5703774594336 696.533068712" stroke-miterlimit="10" stroke-width="1.3612669416666667" stroke-dasharray="12.565541,5.445067766666667"/></g><g><g><path fill="red" stroke="black" paint-order="fill stroke markers" d=" M 132.5202760120586 97.684515734 L 132.5202760120586 63.380588804000006 L 180.2190696480586 63.380588804000006 L 180.2190696480586 97.684515734" stroke-miterlimit="10" stroke-width="2.7769845610000004" stroke-dasharray=""/><path fill="red" stroke="black" paint-order="fill stroke markers" d=" M 180.2190696480586 62.1881189631 L 180.21787718815492 62.29592950801663 L 180.21429992768884 62.403729271968594 L 180.20833822438348 62.51150747506936 L 180.19999267440417 62.619253339588404 L 180.18926411229896 62.72695609102909 L 180.17615361091512 62.834604959206004 L 180.16066248129187 62.94218917932205 L 180.14279227252925 63.04969799304486 L 180.12254477163324 63.15712064958265 L 180.0999220033371 63.2644464067593 L 180.07492622989872 63.371664532088516 L 180.0475599508747 63.47876430384712 L 180.0178259028701 63.58573501214718 L 179.98572705926495 63.692565960007016 L 179.95126662991686 63.79924646442086 L 179.91444806084004 63.90576585742718 L 179.87527503386073 64.01211348717543 L 179.833751466249 64.11827871899126 L 179.78988151032695 64.22425093643996 L 179.74366955305365 64.3300195423881 L 179.69512021558631 64.43557396006322 L 179.64423835281826 64.54090363411153 L 179.5910290528933 64.64599803165338 L 179.53549763669716 64.75084664333659 L 179.47764965732512 64.85543898438739 L 179.41749089952694 64.95976459565881 L 179.35502737912827 65.06381304467668 L 179.29026534242908 65.16757392668278 L 179.2232112655791 65.27103686567541 L 179.1538718539301 65.37419151544687 L 179.0822540413655 65.47702756061814 L 179.00836498960686 65.5795347176704 L 178.93221208749776 65.68170273597339 L 178.853802950265 65.7835213988104 L 178.77314541875688 65.88498052439998 L 178.69024755865945 65.98606996691414 L 178.60511765968954 66.08677961749288 L 178.51776423476613 66.18709940525505 L 178.42819601915897 66.28701929830548 L 178.33642196961492 66.38652930473813 L 178.24245126346247 66.48561947363528 L 178.14629329769394 66.58427989606261 L 178.04795768802578 66.6825007060601 L 177.947454267937 66.7802720816286 L 177.84479308768584 66.87758424571203 L 177.7399844133048 66.97442746717506 L 177.63303872557398 67.07079206177627 L 177.523966718973 67.1666683931365 L 177.41277930061165 67.2620468737025 L 177.29948758913912 67.35691796570569 L 177.18410291363216 67.45127218211596 L 177.0666368124621 67.54510008759026 L 176.94710103214123 67.63839229941624 L 176.82550752614796 67.73113948845047 L 176.70186845373152 67.82333238005134 L 176.5761961786962 67.9149617550065 L 176.4485032681647 68.00601845045483 L 176.3188024913217 68.09649336080267 L 176.18710681813678 68.18637743863435 L 176.05342941806754 68.27566169561702 L 175.91778365874256 68.36433720339936 L 175.78018310462477 68.45239509450451 L 175.6406415156549 68.53982656321674 L 175.49917284587553 68.62662286646201 L 175.3557912420358 68.71277532468237 L 175.21051104217656 68.79827532270376 L 175.06334677419676 68.88311431059763 L 174.9143131544006 68.9672838045359 L 174.76342508602576 69.0507753876393 L 174.6106976577534 69.13358071081912 L 174.45614614219912 69.21569149361203 L 174.29978599438562 69.29709952500816 L 174.1416328501974 69.37779666427225 L 173.98170252481705 69.45777484175761 L 173.8200110111439 69.53702605971311 L 173.65657447819453 69.61554239308303 L 173.49140926948607 69.69331599029945 L 173.3245319014017 69.77033907406746 L 173.15595906153922 69.84660394214286 L 172.98570760704212 69.92210296810242 L 172.81379456291396 69.99682860210643 L 172.6402371203159 70.07077337165379 L 172.46505263484758 70.14392988232913 L 172.28825862481156 70.21629081854239 L 172.1098727694615 70.28784894426022 L 171.9299129072343 70.35859710372968 L 171.7483970339662 70.42852822219379 L 171.56534330109326 70.49763530659898 L 171.38077001383624 70.5659114462944 L 171.19469562937005 70.63334981372294 L 171.00713875497806 70.69994366510412 L 170.81811814619144 70.76568634110825 L 170.62765270491354 70.83057126752253 L 170.43576147752975 70.89459195590838 L 170.24246365300294 70.95774200425032 L 170.04777856095444 71.02001509759614 L 169.85172566973122 71.08140500868842 L 169.65432458445906 71.14190559858717 L 169.45559504508196 71.20151081728383 L 169.25555692438826 71.26021470430622 L 169.05423022602332 71.31801138931453 L 168.85163508248922 71.37489509268845 L 168.64779175313146 71.43086012610503 L 168.44272062211314 71.48590089310757 L 168.23644219637646 71.54001188966522 L 168.02897710359207 71.59318770472345 L 167.8203460900964 71.64542302074504 L 167.61057001881693 71.69671261424193 L 167.39966986718593 71.7470513562975 L 167.18766672504287 71.79643421307951 L 166.9745817925253 71.84485624634341 L 166.76043637794885 71.89231261392625 L 166.54525189567656 71.93879857023082 L 166.32904986397733 71.9843094667002 L 166.11185190287415 72.02884075228269 L 165.89367973198216 72.07238797388683 L 165.6745551683366 72.11494677682676 L 165.45450012421128 72.15651290525764 L 165.23353660492722 72.19708220260128 L 165.01168670665217 72.23665061196175 L 164.78897261419112 72.27521417653107 L 164.56541659876774 72.31276903998494 L 164.34104101579723 72.3493114468683 L 164.11586830265094 72.38483774297092 L 163.88992097641253 72.41934437569277 L 163.66322163162633 72.45282789439938 L 163.43579293803793 72.48528495076673 L 163.20765763832713 72.51671229911628 L 162.9788385458338 72.54710679673934 L 162.74935854227652 72.5764654042115 L 162.5192405754644 72.60478518569649 L 162.28850765700238 72.63206330923974 L 162.05718285999 72.65829704705163 L 161.82528931671422 72.68348377578025 L 161.59285021633607 72.70762097677371 L 161.35988880257196 72.73070623633201 L 161.12642837136906 72.75273724594847 L 160.892492268576 72.77371180254045 L 160.6581038876081 72.79362780866978 L 160.42328666710813 72.81248327275246 L 160.18806408860243 72.83027630925778 L 159.9524596741529 72.84700513889692 L 159.71649698400455 72.86266808880085 L 159.48019961422986 72.87726359268764 L 159.24359119436883 72.89079019101906 L 159.00669538506628 72.90324653114655 L 158.76953587570577 72.91463136744649 L 158.53213638204056 72.9249435614447 L 158.2945206438222 72.93418208193043 L 158.0567124224265 72.94234600505929 L 157.81873549847742 72.94943451444577 L 157.58061366946905 72.95544690124485 L 157.34237074738587 72.96038256422287 L 157.1040305563215 72.96424100981763 L 156.8656169300965 72.9670218521878 L 156.62715370987476 72.96872481325143 L 156.38866474177962 72.96934972271386 L 156.1501738745091 72.96889651808466 L 155.91170495695127 72.96736524468392 L 155.6732818357991 72.96475605563768 L 155.43492835316601 72.96106921186271 L 155.19666834420167 72.95630508204027 L 154.95852563470842 72.9504641425794 L 154.72052403875873 72.94354697756918 L 154.4826873563139 72.93555427872033 L 154.24503937084398 72.9264868452961 L 154.00760384694942 72.91634558403224 L 153.77040452798482 72.90513150904647 L 153.53346513368436 72.89284574173689 L 153.29680935779007 72.87948951067006 L 153.06046086568224 72.86506415145789 L 152.82444329201323 72.84957110662431 L 152.58878023834365 72.8330119254609 L 152.35349527078253 72.81538826387197 L 152.11861191763052 72.79670188420899 L 151.8841536670272 72.77695465509434 L 151.65014396460228 72.7561485512345 L 151.41660621113098 72.73428565322251 L 151.18356376019403 72.71136814732996 L 150.9510399158423 72.68739832528833 L 150.7190579302665 72.66237858405984 L 150.48764100147187 72.63631142559778 L 150.2568122709584 72.60919945659627 L 150.0265948214068 72.58104538822961 L 149.7970116743702 72.55185203588118 L 149.56808578797194 72.5216223188619 L 149.33984005460994 72.49035926011825 L 149.1122972986673 72.45806598593009 L 148.88548027423002 72.4247457255979 L 148.65941166281152 72.39040181111994 L 148.43411407108454 72.35503767685907 L 148.20961002862052 72.31865685919922 L 147.9859219856366 72.28126299619186 L 147.7630723107507 72.24285982719209 L 147.54108328874457 72.20345119248485 L 147.31997711833546 72.16304103290075 L 147.09977590995612 72.12163338942209 L 146.8805016835439 72.07923240277869 L 146.66217636633874 72.03584231303388 L 146.44482179069038 71.99146745916049 L 146.2284596918753 71.94611227860693 L 146.01311170592302 71.89978130685344 L 145.79879936745272 71.85247917695861 L 145.58554410751967 71.80421061909601 L 145.3733672514721 71.75498046008119 L 145.16229001681887 71.70479362288901 L 144.9523335111075 71.65365512616141 L 144.7435187298136 71.60157008370541 L 144.53586655424127 71.54854370398188 L 144.32939774943506 71.49458128958457 L 144.1241329621034 71.43968823671 L 143.92009271855395 71.38387003461766 L 143.71729742264102 71.32713226508127 L 143.51576735372524 71.26948060183051 L 143.31552266464553 71.21092080998365 L 143.11658337970397 71.15145874547107 L 142.9189693926632 71.0911003544497 L 142.7227004647573 71.0298516727083 L 142.5277962227155 70.96771882506403 L 142.33427615679955 70.90470802474988 L 142.14215961885483 70.84082557279336 L 141.951465820375 70.77607785738643 L 141.762213830581 70.71047135324669 L 141.5744225745141 70.64401262096986 L 141.38811083114345 70.5767083063738 L 141.20329723148808 70.50856513983389 L 141.02000025675395 70.43958993560999 L 140.8382382364858 70.36978959116503 L 140.6580293467342 70.29917108647531 L 140.47939160823793 70.22774148333244 L 140.302342884622 70.1555079246372 L 140.1269008806112 70.08247763368529 L 139.95308314025976 70.00865791344492 L 139.78090704519687 69.9340561458266 L 139.6103898128885 69.85867979094495 L 139.44154849491585 69.78253638637263 L 139.27439997527 69.70563354638664 L 139.10896096866358 69.62797896120689 L 138.94524801885944 69.54958039622719 L 138.78327749701612 69.47044569123871 L 138.62306560005084 69.39058275964601 L 138.46462834901973 69.30999958767568 L 138.30798158751594 69.22870423357777 L 138.15314098008503 69.14670482681996 L 138.0001220106587 69.06400956727457 L 137.84893998100645 68.98062672439866 L 137.69961000920517 68.89656463640702 L 137.55214702812768 68.8118317094384 L 137.40656578394913 68.72643641671489 L 137.26288083467267 68.6403872976946 L 137.12110654867348 68.55369295721772 L 136.98125710326198 68.46636206464606 L 136.84334648326623 68.37840335299609 L 136.70738847963327 68.28982561806569 L 136.57339668805017 68.20063771755453 L 136.44138450758442 68.11084857017835 L 136.31136513934408 68.02046715477704 L 136.1833515851576 67.92950250941684 L 136.05735664627375 67.83796373048648 L 135.93339292208137 67.74585997178757 L 135.81147280884963 67.65320044361923 L 135.69160849848825 67.55999441185705 L 135.57381197732835 67.46625119702654 L 135.4580950249239 67.37198017337107 L 135.3444692128737 67.27719076791445 L 135.23294590366427 67.18189245951821 L 135.1235362495336 67.08609477793381 L 135.01625119135593 66.98980730284956 L 134.9111014575477 66.89303966293272 L 134.8080975629946 66.79580153486665 L 134.70724980800028 66.69810264238313 L 134.60856827725624 66.59995275528999 L 134.51206283883326 66.50136168849414 L 134.4177431431948 66.40233930102012 L 134.32561862223181 66.30289549502413 L 134.23569848831963 66.20304021480393 L 134.1479917333967 66.1027834458043 L 134.06250712806542 66.00213521361863 L 133.97925322071512 65.90110558298623 L 133.8982383366671 65.799704656786 L 133.81947057734232 65.69794257502603 L 133.74295781945102 65.59582951382973 L 133.66870771420525 65.4933756844181 L 133.59672768655366 65.3905913320887 L 133.52702493443903 65.28748673519112 L 133.45960642807847 65.18407220409914 L 133.39447890926647 65.08035808017966 L 133.33164889070062 64.97635473475869 L 133.2711226553304 64.87207256808405 L 133.21290625572894 64.76752200828555 L 133.15700551348766 64.66271351033203 L 133.10342601863422 64.55765755498592 L 133.05217312907342 64.45236464775525 L 133.00325197005156 64.34684531784296 L 132.95666743364376 64.24111011709415 L 132.9124241782648 64.13516961894075 L 132.8705266282034 64.0290344173443 L 132.8309789731796 63.92271512573653 L 132.79378516792602 63.81622237595798 L 132.75894893179213 63.70956681719489 L 132.7264737483725 63.602759114914264 L 132.69636286515848 63.49580994979732 L 132.66861929321323 63.38873001667144 L 132.64324580687085 63.28153002344071 L 132.62024494345883 63.17422069001512 L 132.59961900304438 63.066812747238586 L 132.5813700482043 62.959316935815885 L 132.56549990381887 62.85174400523857 L 132.5520101568893 62.74410471271006 L 132.5409021563791 62.636409822069915 L 132.53217701307904 62.52867010271744 L 132.52583559949613 62.4208963285348 L 132.52187854976648 62.313099276809595 L 132.52030625959176 62.20528972715717 L 132.5211188861997 62.09747846044265 L 132.52431634832828 61.98967625770286 L 132.529898326234 61.88189389906824 L 132.53786426172366 61.77414216268484 L 132.54821335821038 61.66643182363649 L 132.56094458079315 61.558773652867366 L 132.5760566563603 61.4511784161048 L 132.59354807371687 61.34365687278283 L 132.6134170837357 61.236219774966166 L 132.63566169953236 61.12887786627507 L 132.6602796966638 61.02164188081096 L 132.6872686133508 60.91452254208302 L 132.71662575072418 60.807530561935856 L 132.7483481730947 60.70067663947832 L 132.78243270824657 60.593971460013606 L 132.81887594775463 60.487425693970756 L 132.85767424732535 60.381049995837586 L 132.89882372716104 60.27485500309525 L 132.94232027234807 60.16885133515453 L 132.98815953326812 60.06304959229389 L 133.03633692603333 59.95746035459945 L 133.08684763294457 59.852094180906974 L 133.13968660297323 59.746961607746044 L 133.19484855226634 59.64207314828636 L 133.25232796467492 59.537439291286454 L 133.31211909230566 59.43307050004484 L 133.3742159560956 59.32897721135367 L 133.43861234641017 59.22516983445505 L 133.5053018236639 59.12165875000019 L 133.5742777189647 59.01845430901127 L 133.64553313478052 58.91556683184637 L 133.71906094562914 58.81300660716748 L 133.79485379879077 58.7107838909116 L 133.87290411504324 58.60890890526517 L 133.95320408941996 58.507391837641855 L 134.0357456919904 58.406242839663825 L 134.12052066866312 58.30547202614659 L 134.20752054201108 58.205089474087515 L 134.29673661211942 58.105105221658164 L 134.38815995745554 58.00552926720046 L 134.48178143576104 57.90637156822687 L 134.5775916849661 57.807642040424646 L 134.6755811241257 57.709350556664305 L 134.7757399543775 57.61150694601232 L 134.87805815992203 57.514120992748204 L 134.98252550902393 57.417202435386145 L 135.08913155503535 57.320760965701105 L 135.19786563744057 57.224806227759686 L 135.30871688292194 57.12934781695572 L 135.42167420644728 57.03439527905074 L 135.5367263123784 56.93995810921942 L 135.6538616956005 56.84604575110002 L 135.77306864267297 56.75266759585011 L 135.8943352330004 56.65983298120741 L 136.0176493400248 56.567551190555996 L 136.14299863243824 56.47583145199805 L 136.27037057541594 56.384682937430995 L 136.39975243186973 56.29411476163032 L 136.53113126372182 56.20413598133814 L 136.66449393319846 56.1147555943575 L 136.79982710414384 56.02598253865261 L 136.9371172433537 55.937825691455075 L 137.07635062192847 55.85029386837614 L 137.21751331664635 55.763395822525176 L 137.36059121135548 55.677140243634355 L 137.50556999838562 55.59153575718968 L 137.6524351799789 55.50659092356846 L 137.80117206973955 55.42231423718327 L 137.95176579410253 55.33871412563253 L 138.1042012938209 55.25579894885771 L 138.25846332547172 55.1735769983074 L 138.41453646298038 55.092056496108135 L 138.57240509916318 55.01124559424221 L 138.73205344728805 54.93115237373246 L 138.89346554265325 54.851784843834196 L 139.05662524418372 54.77315094123426 L 139.2215162360453 54.6952585292574 L 139.3881220292762 54.61811539707989 L 139.55642596343588 54.54172925895067 L 139.7264112082713 54.46610775341989 L 139.89806076539952 54.391258442575094 L 140.0713574700079 54.317188811284986 L 140.24628399257043 54.24390626645098 L 140.42282284058058 54.171418136266475 L 140.6009563603007 54.09973166948409 L 140.78066673852723 54.028854034690774 L 140.96193600437212 53.95879231959093 L 141.14474603105984 53.88955353029769 L 141.32907853774006 53.82114459063227 L 141.51491509131571 53.753572341431656 L 141.70223710828634 53.68684353986444 L 141.8910258566063 53.62096485875517 L 142.08126245755813 53.55594288591707 L 142.2729278876402 53.49178412349323 L 142.4660029804693 53.42849498730643 L 142.66046842869702 53.366081806217544 L 142.85630478594055 53.304550821492676 L 143.05349246872737 53.24390818617902 L 143.2520117584536 53.18415996448957 L 143.4518428033556 53.12531213119671 L 143.65296562049545 53.067370571034715 L 143.85536009775905 53.01034107811134 L 144.0590059958673 52.95422935532834 L 144.26388295040013 52.89904101381123 L 144.4699704738328 52.84478157234818 L 144.6772479575847 52.79145645683812 L 144.8856946740802 52.73907099974815 L 145.09528977882135 52.687630439580346 L 145.30601231247232 52.637139920347835 L 145.5178412029554 52.58760449106049 L 145.73075526755798 52.53902910521993 L 145.94473321505112 52.49141862032429 L 146.1597536478183 52.444777797382365 L 146.3757950639955 52.399111300437596 L 146.59283585962106 52.354423696101605 L 146.81085433079636 52.3107194530976 L 147.02982867585592 52.26800294181345 L 147.24973699754773 52.2262784338647 L 147.47055730522285 52.18555010166736 L 147.69226751703457 52.14582201802072 L 147.91484546214645 52.10709815570004 L 148.13826888294943 52.06938238705927 L 148.36251543728767 52.032678483643856 L 148.58756270069256 51.996990115813546 L 148.81338816862532 51.96232085237539 L 149.03996925872735 51.928674160226834 L 149.26728331307842 51.89605340400906 L 149.49530760046258 51.8644618457705 L 149.72401931864107 51.833902644640645 L 149.95339559663267 51.80437885651416 L 150.18341349700074 51.775893433745246 L 150.4140500181469 51.74844922485244 L 150.64528209661125 51.722048974233765 L 150.87708660937867 51.69669532189228 L 151.10944037619097 51.672390803172085 L 151.3423201618652 51.649137848504814 L 151.57570267861675 51.626938783166544 L 151.80956458838853 51.60579582704531 L 152.04388250518434 51.58571109441911 L 152.27863299740787 51.56668659374447 L 152.51379259020547 51.54872422745561 L 152.7493377678138 51.53182579177417 L 152.98524497591146 51.515992976529645 L 153.22149062397418 51.50122736499037 L 153.45805108763403 51.4875304337052 L 153.69490271104178 51.47490355235584 L 153.93202180923245 51.4633479836199 L 154.16938467049383 51.45286488304463 L 154.40696755873762 51.443455298931354 L 154.64474671587294 51.43512017223063 L 154.88269836418226 51.4278603364482 L 155.12079870869903 51.42167651756158 L 155.3590239395872 51.41656933394751 L 155.59735023452222 51.41253929632009 L 155.8357537610732 51.40958680767973 L 156.07421067908612 51.407712163272826 L 156.31269714306794 51.40691555056227 L 156.55118930457098 51.40719704920866 L 156.7896633145778 51.40855663106237 L 157.0280953258862 51.41099416016634 L 157.2664614954937 51.414509392769695 L 157.50473798698195 51.419101977352106 L 157.74290097290043 51.42477145465894 L 157.98092663714894 51.431517257747196 L 158.21879117735946 51.43933871204218 L 158.4564708072762 51.44823503540498 L 158.6939417591342 51.45820533821068 L 158.93118028603615 51.4692486234373 L 159.1681626643271 51.48136378676553 L 159.4048651959667 51.49454961668913 L 159.641264210899 51.50880479463608 L 159.87733606941956 51.524127895100484 L 160.11305716453924 51.54051738578506 L 160.34840392434492 51.5579716277544 L 160.58335281435677 51.57648887559884 L 160.81788033988158 51.59606727760904 L 161.05196304836227 51.6167048759611 L 161.285577531723 51.6383996069124 L 161.5187004287101 51.66114930100791 L 161.75130842722822 51.684951683297186 L 161.9833782666713 51.70980437356183 L 162.2148867402488 51.735704886553535 L 162.44581069730626 51.76265063224257 L 162.6761270456404 51.79063891607683 L 162.9058127538084 51.81966693925126 L 163.13484485343076 51.849731798987726 L 163.3632004414884 51.88083048882531 L 163.59085668261284 51.91295989892094 L 163.81779081136963 51.94611681636038 L 164.04398013453508 51.980297925479526 L 164.26940203336528 52.01549980819594 L 164.49403396585822 52.0517189443507 L 164.71785346900788 52.08895171206036 L 164.94083816105046 52.127194388079175 L 165.16296574370253 52.16644314817141 L 165.38421400439094 52.20669406749378 L 165.60456081847403 52.247943120987884 L 165.823984151454 52.29018618378274 L 166.0424620611804 52.33341903160728 L 166.2599727000443 52.37763734121275 L 166.4764943171631 52.422836690805035 L 166.6920052605555 52.46901256048684 L 166.90648397930678 52.516160332709674 L 167.11990902572379 52.564275292735616 L 167.33225905747972 52.613352629108746 L 167.54351283974836 52.663387434136325 L 167.75364924732753 52.71437470437956 L 167.9626472667516 52.7663093411539 L 168.1704859983928 52.819186151038956 L 168.37714465855112 52.8729998463978 L 168.58260258153277 52.92774504590574 L 168.7868392217167 52.983416275088445 L 168.98983415560906 53.040007966869396 L 169.19156708388564 53.09751446212657 L 169.39201783342173 53.15593001025836 L 169.59116635930937 53.21524876975863 L 169.78899274686196 53.27546480880087 L 169.98547721360563 53.33657210583136 L 170.18060011125738 53.3985645501713 L 170.3743419276901 53.461435942627936 L 170.56668328888355 53.52517999611441 L 170.75760496086195 53.58979033627848 L 170.94708785161717 53.655260502139996 L 171.135113013018 53.721583946736914 L 171.32166164270507 53.78875403778004 L 171.50671508597082 53.85676405831625 L 171.69025483762513 53.92560720740017 L 171.87226254384578 53.995276600774254 L 172.05272000401385 54.065765271557225 L 172.2316091725337 54.13706617094075 L 172.4089121606375 54.2091721688943 L 172.58461123817426 54.28207605487816 L 172.7586888353826 54.35577053856451 L 172.9311275446479 54.43024825056637 L 173.10191012224286 54.50550174317461 L 173.2710194900521 54.581523491102686 L 173.4384387372798 54.658305892239156 L 173.60415112214065 54.73584126840789 L 173.7681400735343 54.81412186613588 L 173.9303891927023 54.89313985742859 L 174.09088225486792 54.97288734055273 L 174.2496032108587 55.05335634082646 L 174.40653618871127 55.1345388114168 L 174.56166549525864 55.21642663414435 L 174.71497561769945 55.29901162029506 L 174.86645122514918 55.38228551143916 L 175.01607717017336 55.46623998025691 L 175.1638384903021 55.55086663137139 L 175.30972040952662 55.63615700218803 L 175.45370833977648 55.722102563740805 L 175.5957878823787 55.80869472154519 L 175.73594482949738 55.89592481645755 L 175.87416516555461 55.98378412554111 L 176.010435068632 56.07226386293816 L 176.14474091185278 56.1613551807487 L 176.27706926474454 56.251049169915184 L 176.4074068945823 56.34133686111345 L 176.53574076771164 56.4322092256496 L 176.6620580508522 56.52365717636293 L 176.78634611238098 56.615671568534566 L 176.90859252359536 56.70824320080196 L 177.02878505995608 56.80136281607904 L 177.14691170230967 56.89502110248188 L 177.26296063809036 56.98920869425987 L 177.37692026250127 57.083916172732344 L 177.4887791796749 57.17913406723036 L 177.59852620381278 57.27485285604382 L 177.70615036030392 57.37106296737362 L 177.81164088682237 57.467754780288786 L 177.9149872344034 57.56491862568861 L 178.0161790684984 57.662544787269525 L 178.1152062700082 57.76062350249672 L 178.21205893629525 57.859144963580405 L 178.3067273821736 57.95809931845658 L 178.39920214087755 58.05747667177222 L 178.4894739650083 58.15726708587479 L 178.57753382745867 58.257460581806065 L 178.66337292231577 58.358047140299924 L 178.74698266574168 58.459016702784346 L 178.82835469683172 58.56035917238722 L 178.9074808784506 58.66206441494605 L 178.98435329804605 58.764122260021324 L 179.05896426844023 58.866522501913586 L 179.13130632859824 58.96925490068398 L 179.20137224437437 59.072309183178234 L 179.26915500923542 59.17567504405398 L 179.33464784496138 59.279342146811274 L 179.39784420232328 59.38330012482622 L 179.45873776173804 59.48753858238766 L 179.51732243390043 59.59204709573668 L 179.5735923603921 59.69681521410906 L 179.62754191426725 59.80183246078026 L 179.6791657006155 59.907088334113126 L 179.7284585571012 60.012572308608036 L 179.77541555447976 60.11827383595545 L 179.8200319970906 60.22418234609071 L 179.86230342332667 60.33028724825106 L 179.90222560608055 60.43657793203471 L 179.9397945531672 60.54304376846186 L 179.9750065077232 60.64967411103757 L 180.00785794858254 60.75645829681646 L 180.03834559062844 60.86338564746893 L 180.06646638512208 60.97044547034902 L 180.09221752000752 61.07762705956367 L 180.11559642019265 61.184919697043256 L 180.136600747807 61.29231265361346 L 180.15522840243526 61.399795190068104 L 180.17147752132752 61.50735655824312 L 180.1853464795854 61.614986002091314 L 180.19683389032468 61.72267275875801 L 180.20593860481384 61.830406059657264 L 180.21265971258902 61.93817513154877 L 180.21699654154503 62.04596919761514 L 180.21894865800257 62.15377747853961 M 180.2190696480586 96.4920458931 L 180.21787718815492 96.59985643801662 L 180.21429992768884 96.70765620196859 L 180.20833822438348 96.81543440506935 L 180.19999267440417 96.9231802695884 L 180.18926411229896 97.03088302102908 L 180.17615361091512 97.138531889206 L 180.16066248129187 97.24611610932205 L 180.14279227252925 97.35362492304485 L 180.12254477163324 97.46104757958265 L 180.0999220033371 97.5683733367593 L 180.07492622989872 97.67559146208852 L 180.0475599508747 97.78269123384712 L 180.0178259028701 97.88966194214719 L 179.98572705926495 97.99649289000702 L 179.95126662991686 98.10317339442086 L 179.91444806084004 98.20969278742717 L 179.87527503386073 98.31604041717543 L 179.833751466249 98.42220564899125 L 179.78988151032695 98.52817786643996 L 179.74366955305365 98.6339464723881 L 179.69512021558631 98.73950089006323 L 179.64423835281826 98.84483056411152 L 179.5910290528933 98.94992496165337 L 179.53549763669716 99.05477357333659 L 179.47764965732512 99.15936591438738 L 179.41749089952694 99.2636915256588 L 179.35502737912827 99.36773997467667 L 179.29026534242908 99.47150085668278 L 179.2232112655791 99.5749637956754 L 179.1538718539301 99.67811844544686 L 179.0822540413655 99.78095449061813 L 179.00836498960686 99.8834616476704 L 178.93221208749776 99.98562966597338 L 178.853802950265 100.08744832881038 L 178.77314541875688 100.18890745439998 L 178.69024755865945 100.28999689691415 L 178.60511765968954 100.39070654749288 L 178.51776423476613 100.49102633525506 L 178.42819601915897 100.59094622830548 L 178.33642196961492 100.69045623473812 L 178.24245126346247 100.78954640363527 L 178.14629329769394 100.8882068260626 L 178.04795768802578 100.9864276360601 L 177.947454267937 101.0841990116286 L 177.84479308768584 101.18151117571202 L 177.7399844133048 101.27835439717506 L 177.63303872557398 101.37471899177628 L 177.523966718973 101.4705953231365 L 177.41277930061165 101.56597380370249 L 177.29948758913912 101.6608448957057 L 177.18410291363216 101.75519911211595 L 177.0666368124621 101.84902701759025 L 176.94710103214123 101.94231922941623 L 176.82550752614796 102.03506641845047 L 176.70186845373152 102.12725931005133 L 176.5761961786962 102.2188886850065 L 176.4485032681647 102.30994538045483 L 176.3188024913217 102.40042029080266 L 176.18710681813678 102.49030436863434 L 176.05342941806754 102.579588625617 L 175.91778365874256 102.66826413339936 L 175.78018310462477 102.75632202450451 L 175.6406415156549 102.84375349321674 L 175.49917284587553 102.93054979646202 L 175.3557912420358 103.01670225468237 L 175.21051104217656 103.10220225270375 L 175.06334677419676 103.18704124059762 L 174.9143131544006 103.27121073453588 L 174.76342508602576 103.3547023176393 L 174.6106976577534 103.4375076408191 L 174.45614614219912 103.51961842361202 L 174.29978599438562 103.60102645500817 L 174.1416328501974 103.68172359427226 L 173.98170252481705 103.7617017717576 L 173.8200110111439 103.84095298971312 L 173.65657447819453 103.91946932308304 L 173.49140926948607 103.99724292029944 L 173.3245319014017 104.07426600406745 L 173.15595906153922 104.15053087214287 L 172.98570760704212 104.22602989810241 L 172.81379456291396 104.30075553210642 L 172.6402371203159 104.37470030165377 L 172.46505263484758 104.44785681232914 L 172.28825862481156 104.52021774854238 L 172.1098727694615 104.59177587426021 L 171.9299129072343 104.66252403372968 L 171.7483970339662 104.73245515219378 L 171.56534330109326 104.80156223659897 L 171.38077001383624 104.86983837629438 L 171.19469562937005 104.93727674372295 L 171.00713875497806 105.0038705951041 L 170.81811814619144 105.06961327110824 L 170.62765270491354 105.13449819752252 L 170.43576147752975 105.19851888590837 L 170.24246365300294 105.26166893425032 L 170.04777856095444 105.32394202759615 L 169.85172566973122 105.38533193868841 L 169.65432458445906 105.44583252858716 L 169.45559504508196 105.50543774728384 L 169.25555692438826 105.56414163430621 L 169.05423022602332 105.62193831931454 L 168.85163508248922 105.67882202268845 L 168.64779175313146 105.73478705610502 L 168.44272062211314 105.78982782310756 L 168.23644219637646 105.84393881966523 L 168.02897710359207 105.89711463472344 L 167.8203460900964 105.94934995074503 L 167.61057001881693 106.00063954424192 L 167.39966986718593 106.0509782862975 L 167.18766672504287 106.1003611430795 L 166.9745817925253 106.14878317634341 L 166.76043637794885 106.19623954392625 L 166.54525189567656 106.2427255002308 L 166.32904986397733 106.2882363967002 L 166.11185190287415 106.33276768228268 L 165.89367973198216 106.37631490388682 L 165.6745551683366 106.41887370682676 L 165.45450012421128 106.46043983525765 L 165.23353660492722 106.50100913260128 L 165.01168670665217 106.54057754196174 L 164.78897261419112 106.57914110653107 L 164.56541659876774 106.61669596998493 L 164.34104101579723 106.65323837686829 L 164.11586830265094 106.6887646729709 L 163.88992097641253 106.72327130569276 L 163.66322163162633 106.75675482439937 L 163.43579293803793 106.78921188076673 L 163.20765763832713 106.82063922911627 L 162.9788385458338 106.85103372673933 L 162.74935854227652 106.8803923342115 L 162.5192405754644 106.90871211569649 L 162.28850765700238 106.93599023923973 L 162.05718285999 106.96222397705162 L 161.82528931671422 106.98741070578025 L 161.59285021633607 107.0115479067737 L 161.35988880257196 107.03463316633201 L 161.12642837136906 107.05666417594847 L 160.892492268576 107.07763873254045 L 160.6581038876081 107.09755473866979 L 160.42328666710813 107.11641020275246 L 160.18806408860243 107.13420323925777 L 159.9524596741529 107.1509320688969 L 159.71649698400455 107.16659501880085 L 159.48019961422986 107.18119052268763 L 159.24359119436883 107.19471712101905 L 159.00669538506628 107.20717346114655 L 158.76953587570577 107.21855829744648 L 158.53213638204056 107.22887049144471 L 158.2945206438222 107.23810901193042 L 158.0567124224265 107.24627293505928 L 157.81873549847742 107.25336144444577 L 157.58061366946905 107.25937383124486 L 157.34237074738587 107.26430949422287 L 157.1040305563215 107.26816793981763 L 156.8656169300965 107.27094878218779 L 156.62715370987476 107.27265174325143 L 156.38866474177962 107.27327665271386 L 156.1501738745091 107.27282344808465 L 155.91170495695127 107.27129217468391 L 155.6732818357991 107.26868298563768 L 155.43492835316601 107.2649961418627 L 155.19666834420167 107.26023201204026 L 154.95852563470842 107.2543910725794 L 154.72052403875873 107.24747390756917 L 154.4826873563139 107.23948120872033 L 154.24503937084398 107.23041377529609 L 154.00760384694942 107.22027251403225 L 153.77040452798482 107.20905843904646 L 153.53346513368436 107.1967726717369 L 153.29680935779007 107.18341644067004 L 153.06046086568224 107.16899108145788 L 152.82444329201323 107.15349803662431 L 152.58878023834365 107.1369388554609 L 152.35349527078253 107.11931519387196 L 152.11861191763052 107.10062881420897 L 151.8841536670272 107.08088158509435 L 151.65014396460228 107.0600754812345 L 151.41660621113098 107.03821258322252 L 151.18356376019403 107.01529507732995 L 150.9510399158423 106.99132525528832 L 150.7190579302665 106.96630551405984 L 150.48764100147187 106.94023835559778 L 150.2568122709584 106.91312638659626 L 150.0265948214068 106.88497231822961 L 149.7970116743702 106.85577896588119 L 149.56808578797194 106.8255492488619 L 149.33984005460994 106.79428619011826 L 149.1122972986673 106.76199291593008 L 148.88548027423002 106.72867265559789 L 148.65941166281152 106.69432874111995 L 148.43411407108454 106.65896460685907 L 148.20961002862052 106.62258378919921 L 147.9859219856366 106.58518992619184 L 147.7630723107507 106.5467867571921 L 147.54108328874457 106.50737812248485 L 147.31997711833546 106.46696796290075 L 147.09977590995612 106.42556031942208 L 146.8805016835439 106.38315933277867 L 146.66217636633874 106.33976924303387 L 146.44482179069038 106.29539438916049 L 146.2284596918753 106.25003920860692 L 146.01311170592302 106.20370823685344 L 145.79879936745272 106.15640610695861 L 145.58554410751967 106.108137549096 L 145.3733672514721 106.05890739008117 L 145.16229001681887 106.00872055288902 L 144.9523335111075 105.9575820561614 L 144.7435187298136 105.90549701370541 L 144.53586655424127 105.85247063398188 L 144.32939774943506 105.79850821958458 L 144.1241329621034 105.74361516670999 L 143.92009271855395 105.68779696461766 L 143.71729742264102 105.63105919508126 L 143.51576735372524 105.57340753183051 L 143.31552266464553 105.51484773998365 L 143.11658337970397 105.45538567547108 L 142.9189693926632 105.3950272844497 L 142.7227004647573 105.33377860270829 L 142.5277962227155 105.27164575506403 L 142.33427615679955 105.20863495474987 L 142.14215961885483 105.14475250279335 L 141.951465820375 105.08000478738643 L 141.762213830581 105.01439828324668 L 141.5744225745141 104.94793955096986 L 141.38811083114345 104.8806352363738 L 141.20329723148808 104.8124920698339 L 141.02000025675395 104.74351686560999 L 140.8382382364858 104.67371652116503 L 140.6580293467342 104.6030980164753 L 140.47939160823793 104.53166841333243 L 140.302342884622 104.4594348546372 L 140.1269008806112 104.38640456368528 L 139.95308314025976 104.31258484344491 L 139.78090704519687 104.2379830758266 L 139.6103898128885 104.16260672094495 L 139.44154849491585 104.08646331637262 L 139.27439997527 104.00956047638662 L 139.10896096866358 103.93190589120688 L 138.94524801885944 103.85350732622719 L 138.78327749701612 103.77437262123871 L 138.62306560005084 103.694509689646 L 138.46462834901973 103.61392651767568 L 138.30798158751594 103.53263116357778 L 138.15314098008503 103.45063175681996 L 138.0001220106587 103.36793649727457 L 137.84893998100645 103.28455365439865 L 137.69961000920517 103.20049156640701 L 137.55214702812768 103.1157586394384 L 137.40656578394913 103.03036334671489 L 137.26288083467267 102.94431422769459 L 137.12110654867348 102.85761988721772 L 136.98125710326198 102.77028899464605 L 136.84334648326623 102.68233028299609 L 136.70738847963327 102.59375254806568 L 136.57339668805017 102.50456464755453 L 136.44138450758442 102.41477550017834 L 136.31136513934408 102.32439408477703 L 136.1833515851576 102.23342943941684 L 136.05735664627375 102.14189066048647 L 135.93339292208137 102.04978690178756 L 135.81147280884963 101.95712737361922 L 135.69160849848825 101.86392134185704 L 135.57381197732835 101.77017812702654 L 135.4580950249239 101.67590710337106 L 135.3444692128737 101.58111769791444 L 135.23294590366427 101.48581938951821 L 135.1235362495336 101.39002170793381 L 135.01625119135593 101.29373423284954 L 134.9111014575477 101.19696659293271 L 134.8080975629946 101.09972846486664 L 134.70724980800028 101.00202957238312 L 134.60856827725624 100.90387968528998 L 134.51206283883326 100.80528861849413 L 134.4177431431948 100.70626623102011 L 134.32561862223181 100.60682242502413 L 134.23569848831963 100.50696714480392 L 134.1479917333967 100.40671037580431 L 134.06250712806542 100.30606214361863 L 133.97925322071512 100.20503251298624 L 133.8982383366671 100.103631586786 L 133.81947057734232 100.00186950502604 L 133.74295781945102 99.89975644382972 L 133.66870771420525 99.79730261441809 L 133.59672768655366 99.69451826208869 L 133.52702493443903 99.59141366519111 L 133.45960642807847 99.48799913409913 L 133.39447890926647 99.38428501017967 L 133.33164889070062 99.28028166475868 L 133.2711226553304 99.17599949808405 L 133.21290625572894 99.07144893828554 L 133.15700551348766 98.96664044033201 L 133.10342601863422 98.86158448498593 L 133.05217312907342 98.75629157775525 L 133.00325197005156 98.65077224784297 L 132.95666743364376 98.54503704709414 L 132.9124241782648 98.43909654894075 L 132.8705266282034 98.33296134734431 L 132.8309789731796 98.22664205573652 L 132.79378516792602 98.12014930595798 L 132.75894893179213 98.01349374719489 L 132.7264737483725 97.90668604491427 L 132.69636286515848 97.79973687979731 L 132.66861929321323 97.69265694667143 L 132.64324580687085 97.58545695344071 L 132.62024494345883 97.47814762001512 L 132.59961900304438 97.37073967723859 L 132.5813700482043 97.26324386581588 L 132.56549990381887 97.15567093523856 L 132.5520101568893 97.04803164271006 L 132.5409021563791 96.94033675206991 L 132.53217701307904 96.83259703271744 L 132.52583559949613 96.7248232585348 L 132.52187854976648 96.6170262068096 L 132.52030625959176 96.50921665715717" stroke-miterlimit="10" stroke-width="2.7769845610000004" stroke-dasharray=""/></g><g><g/><text fill="black" stroke="none" font-family="sans-serif" font-size="11pt" font-style="normal" font-weight="normal" text-decoration="normal" x="137.62952237839843" y="124.800953212" text-anchor="start" dominant-baseline="alphabetic" xml:space="preserve">Redis</text></g><g><path fill="white" stroke="black" paint-order="fill stroke markers" d=" M 414.8281543599336 82.819480731 A 24.2577769005 24.2577769005 0 1 1 414.8281422310462 82.79522295814245 M 387.30333679943357 58.561703830499994 L 397.10445877943357 50.39410218049999 M 387.30333679943357 58.561703830499994 L 397.10445877943357 66.72930548049999" stroke-miterlimit="10" stroke-width="2.7769845610000004" stroke-dasharray=""/></g><g><g/><text fill="black" stroke="none" font-family="sans-serif" font-size="11pt" font-style="normal" font-weight="normal" text-decoration="normal" x="366.1287346982031" y="124.800953212" text-anchor="start" dominant-baseline="alphabetic" xml:space="preserve">Service</text></g></g><g><g><g><rect fill="white" stroke="none" x="227.02191902718752" y="162.371920802" width="92.89621223511719" height="21.23576429"/></g><text fill="black" stroke="none" font-family="sans-serif" font-size="11pt" font-style="normal" font-weight="normal" text-decoration="normal" x="229.4721995221875" y="177.07360377199998" text-anchor="start" dominant-baseline="alphabetic" xml:space="preserve">A key expires</text></g><g><path fill="none" stroke="black" paint-order="fill stroke markers" d=" M 156.3696728300586 183.607685092 L 377.12106007576693 183.607685092" stroke-miterlimit="10" stroke-width="1.3612669416666667" stroke-dasharray=""/><g transform="translate(390.5703774594336,183.607685092) translate(-390.5703774594336,-183.607685092)"><path fill="black" stroke="none" paint-order="stroke fill markers" d=" M 376.9577080427669 176.80135038366666 L 390.5703774594336 183.607685092 L 376.9577080427669 190.41401980033334 Z"/></g></g><path fill="white" stroke="black" paint-order="fill stroke markers" d=" M 41.828993861914064 208.11049004200004 L 256.20866882820314 208.11049004200004 L 270.9103517982031 222.81217301200004 L 270.9103517982031 278.351864232 L 41.828993861914064 278.351864232 L 41.828993861914064 208.11049004200004 M 256.20866882820314 208.11049004200004 L 256.20866882820314 222.81217301200004 L 270.9103517982031 222.81217301200004" stroke-miterlimit="10" stroke-width="1.3612669416666667" stroke-dasharray=""/><g><text fill="black" stroke="none" font-family="sans-serif" font-size="11pt" font-style="normal" font-weight="normal" text-decoration="normal" x="64.69827848191406" y="230.979774662" text-anchor="start" dominant-baseline="alphabetic" xml:space="preserve">Keyspace notification </text><text fill="black" stroke="none" font-family="sans-serif" font-size="11pt" font-style="normal" font-weight="normal" text-decoration="normal" x="64.69827848191406" y="247.314977962" text-anchor="start" dominant-baseline="alphabetic" xml:space="preserve">should be enabled to </text><text fill="black" stroke="none" font-family="sans-serif" font-size="11pt" font-style="normal" font-weight="normal" text-decoration="normal" x="64.69827848191406" y="263.650181262" text-anchor="start" dominant-baseline="alphabetic" xml:space="preserve">allow this kind of interaction.</text></g><path fill="white" stroke="black" paint-order="fill stroke markers" d=" M 8.16760165 302.854669182 L 289.8700610401172 302.854669182 L 304.5717440101172 317.556352152 L 304.5717440101172 340.425636772 L 8.16760165 340.425636772 L 8.16760165 302.854669182 M 289.8700610401172 302.854669182 L 289.8700610401172 317.556352152 L 304.5717440101172 317.556352152" stroke-miterlimit="10" stroke-width="1.3612669416666667" stroke-dasharray=""/><g><text fill="black" stroke="none" font-family="sans-serif" font-size="11pt" font-style="normal" font-weight="normal" text-decoration="normal" x="31.036886269999997" y="325.723953802" text-anchor="start" dominant-baseline="alphabetic" xml:space="preserve">We will only monitor user session keys</text></g><g><g><rect fill="white" stroke="none" x="409.90036803110024" y="364.92844172200006" width="282.9534937292578" height="21.23576429"/></g><text fill="black" stroke="none" font-family="sans-serif" font-size="11pt" font-style="normal" font-weight="normal" text-decoration="normal" x="412.35064852610026" y="379.63012469200004" text-anchor="start" dominant-baseline="alphabetic" xml:space="preserve">Triggers a </text><text fill="black" stroke="none" font-family="sans-serif" font-size="11pt" font-style="normal" font-weight="bold" text-decoration="normal" x="481.87100375070963" y="379.63012469200004" text-anchor="start" dominant-baseline="alphabetic" xml:space="preserve">updateUserStatus</text><text fill="black" stroke="none" font-family="sans-serif" font-size="11pt" font-style="normal" font-weight="normal" text-decoration="normal" x="607.3255325593034" y="379.63012469200004" text-anchor="start" dominant-baseline="alphabetic" xml:space="preserve"> to </text><text fill="black" stroke="none" font-family="sans-serif" font-size="11pt" font-style="normal" font-weight="bold" text-decoration="normal" x="627.697755459694" y="379.63012469200004" text-anchor="start" dominant-baseline="alphabetic" xml:space="preserve">OFFLINE</text></g><g><path fill="none" stroke="black" paint-order="fill stroke markers" d=" M 390.5703774594336 386.164206012 L 455.9111906594336 386.164206012 L 455.9111906594336 407.39997030200004 L 404.01969484310024 407.39997030200004" stroke-miterlimit="10" stroke-width="1.3612669416666667" stroke-dasharray=""/><g transform="translate(390.5703774594336,407.39997030200004) translate(-390.5703774594336,-407.39997030200004)"><path fill="black" stroke="none" paint-order="stroke fill markers" d=" M 404.18304687610026 400.5936355936667 L 390.5703774594336 407.39997030200004 L 404.18304687610026 414.2063050103334 Z"/></g></g><g><g><rect fill="white" stroke="none" x="182.6231839808008" y="431.902775252" width="181.69368232789063" height="21.23576429"/></g><text fill="black" stroke="none" font-family="sans-serif" font-size="11pt" font-style="normal" font-weight="normal" text-decoration="normal" x="185.0734644758008" y="446.604458222" text-anchor="start" dominant-baseline="alphabetic" xml:space="preserve">Update status as </text><text fill="black" stroke="none" font-family="sans-serif" font-size="11pt" font-style="normal" font-weight="bold" text-decoration="normal" x="299.16076000802735" y="446.604458222" text-anchor="start" dominant-baseline="alphabetic" xml:space="preserve">OFFLINE</text></g><g><path fill="none" stroke="black" paint-order="fill stroke markers" d=" M 390.5703774594336 453.13853954200005 L 169.81899021372527 453.13853954200005" stroke-miterlimit="10" stroke-width="1.3612669416666667" stroke-dasharray=""/><g transform="translate(156.3696728300586,453.13853954200005) translate(-156.3696728300586,-453.13853954200005)"><path fill="black" stroke="none" paint-order="stroke fill markers" d=" M 169.98234224672527 446.3322048336667 L 156.3696728300586 453.13853954200005 L 169.98234224672527 459.9448742503334 Z"/></g></g><path fill="white" stroke="black" paint-order="fill stroke markers" d=" M 164.53727448005858 477.64134449200003 L 601.9017974688086 477.64134449200003 L 616.6034804388086 492.343027462 L 616.6034804388086 531.547515382 L 164.53727448005858 531.547515382 L 164.53727448005858 477.64134449200003 M 601.9017974688086 477.64134449200003 L 601.9017974688086 492.343027462 L 616.6034804388086 492.343027462" stroke-miterlimit="10" stroke-width="1.3612669416666667" stroke-dasharray=""/><g><text fill="black" stroke="none" font-family="sans-serif" font-size="11pt" font-style="normal" font-weight="normal" text-decoration="normal" x="187.4065591000586" y="500.510629112" text-anchor="start" dominant-baseline="alphabetic" xml:space="preserve">The actual key to the user session is already gone.</text><text fill="black" stroke="none" font-family="sans-serif" font-size="11pt" font-style="normal" font-weight="normal" text-decoration="normal" x="187.4065591000586" y="516.845832412" text-anchor="start" dominant-baseline="alphabetic" xml:space="preserve">We will create a new hash key with only the status information.</text></g><g><g><rect fill="white" stroke="none" x="196.05198647103518" y="556.050320332" width="154.83607734742188" height="21.23576429"/></g><text fill="black" stroke="none" font-family="sans-serif" font-size="11pt" font-style="normal" font-weight="normal" text-decoration="normal" x="198.50226696603517" y="570.7520033019999" text-anchor="start" dominant-baseline="alphabetic" xml:space="preserve">Set expiration time to </text><text fill="black" stroke="none" font-family="sans-serif" font-size="11pt" font-style="normal" font-weight="bold" text-decoration="normal" x="340.2846003400586" y="570.7520033019999" text-anchor="start" dominant-baseline="alphabetic" xml:space="preserve">0</text></g><g><path fill="none" stroke="black" paint-order="fill stroke markers" d=" M 390.5703774594336 577.286084622 L 169.81899021372527 577.286084622" stroke-miterlimit="10" stroke-width="1.3612669416666667" stroke-dasharray=""/><g transform="translate(156.3696728300586,577.286084622) translate(-156.3696728300586,-577.286084622)"><path fill="black" stroke="none" paint-order="stroke fill markers" d=" M 169.98234224672527 570.4797499136666 L 156.3696728300586 577.286084622 L 169.98234224672527 584.0924193303333 Z"/></g></g><path fill="white" stroke="black" paint-order="fill stroke markers" d=" M 29.345107143164064 601.788889572 L 268.69255554695314 601.788889572 L 283.3942385169531 616.490572542 L 283.3942385169531 639.359857162 L 29.345107143164064 639.359857162 L 29.345107143164064 601.788889572 M 268.69255554695314 601.788889572 L 268.69255554695314 616.490572542 L 283.3942385169531 616.490572542" stroke-miterlimit="10" stroke-width="1.3612669416666667" stroke-dasharray=""/><g><text fill="black" stroke="none" font-family="sans-serif" font-size="11pt" font-style="normal" font-weight="normal" text-decoration="normal" x="52.21439176316406" y="624.658174192" text-anchor="start" dominant-baseline="alphabetic" xml:space="preserve">We will set this key to not expire</text></g></g><g/><g/></g></svg>