<svg version="1.1" xmlns="http://www.w3.org/2000/svg" xmlns:xlink="http://www.w3.org/1999/xlink" width="1253" height="783"><desc>title%20User%20Change%20Status%0A%0Aactor%20Client%20%23blue%0Aboundary%20gRPC%20Endpoint%0Acontrol%20Service%0Adatabase%20Redis%20%23red%0A%0AClient-%3EgRPC%20Endpoint%3AUser%20change%20status%0A%0Anote%20over%20Client%3AA%20user%20can%20manually%20change%20status%20%5CnOR%20a%20status%20can%20be%20changed%20%5Cnby%20some%20client-side%20action%0A%0AgRPC%20Endpoint-%3EService%3ATrigger%20**updateUserStatus**%0A%0Anote%20over%20Service%3AThe%20status%20being%20set%20%5Cnwill%20depend%20on%20the%20%5Cnendpoint%20being%20triggered.%0A%0A%0AService-%3ERedis%3AUpdate%20status%20to%20the%20received%20one%0A%0Anote%20over%20Redis%3AThe%20status%20will%20be%20added%20to%20the%20existing%20session%20hash%20entry%0A%0AService-%3ERedis%3ASet%20expiration%20time%20to%20**2%20min**%0A%0Anote%20over%20Redis%3AKeep%20in%20mind%20that%20this%20expiration%20time%20should%20be%20aligned%20with%20the%20**global**%20expiration%20time.%0A%0A%0AgRPC%20Endpoint%3C-Service%3ANotify%20caller%20with%20current%20status%0A%0AClient%3C-gRPC%20Endpoint%3ANotify%20user%20with%20current%20status</desc><defs/><g><g/><g/><g/><g/><g/><g/><g/><g/><g/><g/><g/><g/><g/><g/><g/><g/><g/><g/><g><rect fill="white" stroke="none" x="0" y="0" width="1253" height="783"/></g><g><text fill="black" stroke="none" font-family="sans-serif" font-size="16.5pt" font-style="normal" font-weight="normal" text-decoration="normal" x="527.8246384755892" y="24.50280495" text-anchor="start" dominant-baseline="alphabetic" xml:space="preserve">User Change Status</text></g><g/><g><path fill="none" stroke="black" paint-order="fill stroke markers" d=" M 147.16067319626953 129.701514202 L 147.16067319626953 783.1096462019999" stroke-miterlimit="10" stroke-width="1.3612669416666667" stroke-dasharray="12.565541,5.445067766666667"/><path fill="none" stroke="black" paint-order="fill stroke markers" d=" M 383.8134699682747 129.701514202 L 383.8134699682747 783.1096462019999" stroke-miterlimit="10" stroke-width="1.3612669416666667" stroke-dasharray="12.565541,5.445067766666667"/><path fill="none" stroke="black" paint-order="fill stroke markers" d=" M 626.9802132734831 129.701514202 L 626.9802132734831 783.1096462019999" stroke-miterlimit="10" stroke-width="1.3612669416666667" stroke-dasharray="12.565541,5.445067766666667"/><path fill="none" stroke="black" paint-order="fill stroke markers" d=" M 940.3684560498307 129.701514202 L 940.3684560498307 783.1096462019999" stroke-miterlimit="10" stroke-width="1.3612669416666667" stroke-dasharray="12.565541,5.445067766666667"/></g><g><g><path fill="blue" stroke="black" paint-order="fill stroke markers" d=" M 156.47173907726952 60.60360424300001 A 9.311065881 9.311065881 0 1 1 156.47173442173698 60.594293178670846 M 147.16067319626953 69.91467012400001 L 147.16067319626953 89.84361815000001 M 135.39932682026952 77.102159576 L 158.92201957226953 77.102159576 M 147.16067319626953 89.84361815000001 L 135.39932682026952 108.465749912 M 147.16067319626953 89.84361815000001 L 158.92201957226953 108.465749912" stroke-miterlimit="10" stroke-width="2.7769845610000004" stroke-dasharray=""/></g><g><g/><text fill="black" stroke="none" font-family="sans-serif" font-size="11pt" font-style="normal" font-weight="normal" text-decoration="normal" x="128.42052274460937" y="124.800953212" text-anchor="start" dominant-baseline="alphabetic" xml:space="preserve">Client</text></g><g><path fill="white" stroke="black" paint-order="fill stroke markers" d=" M 416.2388485187747 82.819480731 A 24.2577769005 24.2577769005 0 1 1 416.2388363898873 82.79522295814245 M 352.7765836982747 57.17321154999999 L 352.7765836982747 108.465749912 M 351.3880914177747 82.819480731 L 367.7232947177747 82.819480731" stroke-miterlimit="10" stroke-width="2.7769845610000004" stroke-dasharray=""/></g><g><g/><text fill="black" stroke="none" font-family="sans-serif" font-size="11pt" font-style="normal" font-weight="normal" text-decoration="normal" x="333.28735455079425" y="124.800953212" text-anchor="start" dominant-baseline="alphabetic" xml:space="preserve">gRPC Endpoint</text></g><g><path fill="white" stroke="black" paint-order="fill stroke markers" d=" M 651.237990173983 82.819480731 A 24.2577769005 24.2577769005 0 1 1 651.2379780450956 82.79522295814245 M 623.713172613483 58.561703830499994 L 633.514294593483 50.39410218049999 M 623.713172613483 58.561703830499994 L 633.514294593483 66.72930548049999" stroke-miterlimit="10" stroke-width="2.7769845610000004" stroke-dasharray=""/></g><g><g/><text fill="black" stroke="none" font-family="sans-serif" font-size="11pt" font-style="normal" font-weight="normal" text-decoration="normal" x="602.5385705122526" y="124.800953212" text-anchor="start" dominant-baseline="alphabetic" xml:space="preserve">Service</text></g><g><path fill="red" stroke="black" paint-order="fill stroke markers" d=" M 916.5190592318307 97.684515734 L 916.5190592318307 63.380588804000006 L 964.2178528678306 63.380588804000006 L 964.2178528678306 97.684515734" stroke-miterlimit="10" stroke-width="2.7769845610000004" stroke-dasharray=""/><path fill="red" stroke="black" paint-order="fill stroke markers" d=" M 964.2178528678306 62.1881189631 L 964.216660407927 62.29592950801663 L 964.2130831474609 62.403729271968594 L 964.2071214441556 62.51150747506936 L 964.1987758941763 62.619253339588404 L 964.188047332071 62.72695609102909 L 964.1749368306872 62.834604959206004 L 964.159445701064 62.94218917932205 L 964.1415754923014 63.04969799304486 L 964.1213279914053 63.15712064958265 L 964.0987052231092 63.2644464067593 L 964.0737094496708 63.371664532088516 L 964.0463431706468 63.47876430384712 L 964.0166091226422 63.58573501214718 L 963.9845102790371 63.692565960007016 L 963.950049849689 63.79924646442086 L 963.9132312806122 63.90576585742718 L 963.8740582536328 64.01211348717543 L 963.8325346860211 64.11827871899126 L 963.7886647300991 64.22425093643996 L 963.7424527728257 64.3300195423881 L 963.6939034353584 64.43557396006322 L 963.6430215725903 64.54090363411153 L 963.5898122726654 64.64599803165338 L 963.5342808564692 64.75084664333659 L 963.4764328770972 64.85543898438739 L 963.416274119299 64.95976459565881 L 963.3538105989004 65.06381304467668 L 963.2890485622012 65.16757392668278 L 963.2219944853512 65.27103686567541 L 963.1526550737022 65.37419151544687 L 963.0810372611376 65.47702756061814 L 963.0071482093789 65.5795347176704 L 962.9309953072699 65.68170273597339 L 962.8525861700371 65.7835213988104 L 962.771928638529 65.88498052439998 L 962.6890307784315 65.98606996691414 L 962.6039008794617 66.08677961749288 L 962.5165474545382 66.18709940525505 L 962.426979238931 66.28701929830548 L 962.335205189387 66.38652930473813 L 962.2412344832346 66.48561947363528 L 962.145076517466 66.58427989606261 L 962.0467409077979 66.6825007060601 L 961.9462374877091 66.7802720816286 L 961.843576307458 66.87758424571203 L 961.7387676330769 66.97442746717506 L 961.631821945346 67.07079206177627 L 961.522749938745 67.1666683931365 L 961.4115625203838 67.2620468737025 L 961.2982708089112 67.35691796570569 L 961.1828861334043 67.45127218211596 L 961.0654200322342 67.54510008759026 L 960.9458842519133 67.63839229941624 L 960.82429074592 67.73113948845047 L 960.7006516735037 67.82333238005134 L 960.5749793984683 67.9149617550065 L 960.4472864879368 68.00601845045483 L 960.3175857110938 68.09649336080267 L 960.1858900379088 68.18637743863435 L 960.0522126378396 68.27566169561702 L 959.9165668785147 68.36433720339936 L 959.7789663243968 68.45239509450451 L 959.6394247354269 68.53982656321674 L 959.4979560656476 68.62662286646201 L 959.3545744618078 68.71277532468237 L 959.2092942619487 68.79827532270376 L 959.0621299939688 68.88311431059763 L 958.9130963741727 68.9672838045359 L 958.7622083057978 69.0507753876393 L 958.6094808775255 69.13358071081912 L 958.4549293619713 69.21569149361203 L 958.2985692141577 69.29709952500816 L 958.1404160699694 69.37779666427225 L 957.9804857445891 69.45777484175761 L 957.818794230916 69.53702605971311 L 957.6553576979667 69.61554239308303 L 957.4901924892581 69.69331599029945 L 957.3233151211738 69.77033907406746 L 957.1547422813113 69.84660394214286 L 956.9844908268142 69.92210296810242 L 956.812577782686 69.99682860210643 L 956.639020340088 70.07077337165379 L 956.4638358546197 70.14392988232913 L 956.2870418445837 70.21629081854239 L 956.1086559892336 70.28784894426022 L 955.9286961270063 70.35859710372968 L 955.7471802537383 70.42852822219379 L 955.5641265208653 70.49763530659898 L 955.3795532336084 70.5659114462944 L 955.1934788491421 70.63334981372294 L 955.0059219747502 70.69994366510412 L 954.8169013659635 70.76568634110825 L 954.6264359246857 70.83057126752253 L 954.4345446973018 70.89459195590838 L 954.241246872775 70.95774200425032 L 954.0465617807265 71.02001509759614 L 953.8505088895033 71.08140500868842 L 953.6531078042311 71.14190559858717 L 953.4543782648541 71.20151081728383 L 953.2543401441603 71.26021470430622 L 953.0530134457954 71.31801138931453 L 952.8504183022613 71.37489509268845 L 952.6465749729035 71.43086012610503 L 952.4415038418853 71.48590089310757 L 952.2352254161485 71.54001188966522 L 952.0277603233642 71.59318770472345 L 951.8191293098685 71.64542302074504 L 951.609353238589 71.69671261424193 L 951.398453086958 71.7470513562975 L 951.186449944815 71.79643421307951 L 950.9733650122973 71.84485624634341 L 950.759219597721 71.89231261392625 L 950.5440351154487 71.93879857023082 L 950.3278330837494 71.9843094667002 L 950.1106351226463 72.02884075228269 L 949.8924629517543 72.07238797388683 L 949.6733383881087 72.11494677682676 L 949.4532833439833 72.15651290525764 L 949.2323198246993 72.19708220260128 L 949.0104699264243 72.23665061196175 L 948.7877558339633 72.27521417653107 L 948.5641998185398 72.31276903998494 L 948.3398242355694 72.3493114468683 L 948.1146515224231 72.38483774297092 L 947.8887041961847 72.41934437569277 L 947.6620048513985 72.45282789439938 L 947.43457615781 72.48528495076673 L 947.2064408580992 72.51671229911628 L 946.9776217656059 72.54710679673934 L 946.7481417620486 72.5764654042115 L 946.5180237952366 72.60478518569649 L 946.2872908767745 72.63206330923974 L 946.0559660797621 72.65829704705163 L 945.8240725364863 72.68348377578025 L 945.5916334361082 72.70762097677371 L 945.3586720223441 72.73070623633201 L 945.1252115911411 72.75273724594847 L 944.8912754883481 72.77371180254045 L 944.6568871073802 72.79362780866978 L 944.4220698868802 72.81248327275246 L 944.1868473083746 72.83027630925778 L 943.9512428939249 72.84700513889692 L 943.7152802037766 72.86266808880085 L 943.478982834002 72.87726359268764 L 943.242374414141 72.89079019101906 L 943.0054786048383 72.90324653114655 L 942.7683190954779 72.91463136744649 L 942.5309196018127 72.9249435614447 L 942.2933038635942 72.93418208193043 L 942.0554956421986 72.94234600505929 L 941.8175187182495 72.94943451444577 L 941.5793968892411 72.95544690124485 L 941.341153967158 72.96038256422287 L 941.1028137760936 72.96424100981763 L 940.8644001498686 72.9670218521878 L 940.6259369296469 72.96872481325143 L 940.3874479615517 72.96934972271386 L 940.1489570942812 72.96889651808466 L 939.9104881767233 72.96736524468392 L 939.6720650555711 72.96475605563768 L 939.4337115729381 72.96106921186271 L 939.1954515639737 72.95630508204027 L 938.9573088544805 72.9504641425794 L 938.7193072585309 72.94354697756918 L 938.481470576086 72.93555427872033 L 938.2438225906161 72.9264868452961 L 938.0063870667216 72.91634558403224 L 937.7691877477569 72.90513150904647 L 937.5322483534565 72.89284574173689 L 937.2955925775622 72.87948951067006 L 937.0592440854543 72.86506415145789 L 936.8232265117853 72.84957110662431 L 936.5875634581157 72.8330119254609 L 936.3522784905546 72.81538826387197 L 936.1173951374026 72.79670188420899 L 935.8829368867993 72.77695465509434 L 935.6489271843744 72.7561485512345 L 935.415389430903 72.73428565322251 L 935.1823469799662 72.71136814732996 L 934.9498231356145 72.68739832528833 L 934.7178411500386 72.66237858405984 L 934.486424221244 72.63631142559778 L 934.2555954907305 72.60919945659627 L 934.0253780411789 72.58104538822961 L 933.7957948941423 72.55185203588118 L 933.566869007744 72.5216223188619 L 933.338623274382 72.49035926011825 L 933.1110805184394 72.45806598593009 L 932.8842634940021 72.4247457255979 L 932.6581948825836 72.39040181111994 L 932.4328972908567 72.35503767685907 L 932.2083932483926 72.31865685919922 L 931.9847052054087 72.28126299619186 L 931.7618555305228 72.24285982719209 L 931.5398665085166 72.20345119248485 L 931.3187603381076 72.16304103290075 L 931.0985591297282 72.12163338942209 L 930.879284903316 72.07923240277869 L 930.6609595861108 72.03584231303388 L 930.4436050104624 71.99146745916049 L 930.2272429116474 71.94611227860693 L 930.0118949256951 71.89978130685344 L 929.7975825872248 71.85247917695861 L 929.5843273272917 71.80421061909601 L 929.3721504712443 71.75498046008119 L 929.1610732365909 71.70479362288901 L 928.9511167308796 71.65365512616141 L 928.7423019495857 71.60157008370541 L 928.5346497740134 71.54854370398188 L 928.3281809692072 71.49458128958457 L 928.1229161818756 71.43968823671 L 927.9188759383261 71.38387003461766 L 927.7160806424131 71.32713226508127 L 927.5145505734973 71.26948060183051 L 927.3143058844176 71.21092080998365 L 927.115366599476 71.15145874547107 L 926.9177526124353 71.0911003544497 L 926.7214836845294 71.0298516727083 L 926.5265794424876 70.96771882506403 L 926.3330593765717 70.90470802474988 L 926.1409428386269 70.84082557279336 L 925.9502490401471 70.77607785738643 L 925.7609970503531 70.71047135324669 L 925.5732057942862 70.64401262096986 L 925.3868940509155 70.5767083063738 L 925.2020804512601 70.50856513983389 L 925.0187834765261 70.43958993560999 L 924.8370214562578 70.36978959116503 L 924.6568125665063 70.29917108647531 L 924.4781748280101 70.22774148333244 L 924.3011261043941 70.1555079246372 L 924.1256841003833 70.08247763368529 L 923.9518663600319 70.00865791344492 L 923.779690264969 69.9340561458266 L 923.6091730326606 69.85867979094495 L 923.440331714688 69.78253638637263 L 923.2731831950421 69.70563354638664 L 923.1077441884357 69.62797896120689 L 922.9440312386315 69.54958039622719 L 922.7820607167882 69.47044569123871 L 922.621848819823 69.39058275964601 L 922.4634115687918 69.30999958767568 L 922.306764807288 69.22870423357777 L 922.1519241998571 69.14670482681996 L 921.9989052304309 69.06400956727457 L 921.8477232007785 68.98062672439866 L 921.6983932289772 68.89656463640702 L 921.5509302478997 68.8118317094384 L 921.4053490037212 68.72643641671489 L 921.2616640544447 68.6403872976946 L 921.1198897684455 68.55369295721772 L 920.9800403230341 68.46636206464606 L 920.8421297030384 68.37840335299609 L 920.7061716994053 68.28982561806569 L 920.5721799078223 68.20063771755453 L 920.4401677273565 68.11084857017835 L 920.3101483591162 68.02046715477704 L 920.1821348049297 67.92950250941684 L 920.0561398660458 67.83796373048648 L 919.9321761418535 67.74585997178757 L 919.8102560286218 67.65320044361923 L 919.6903917182603 67.55999441185705 L 919.5725951971004 67.46625119702654 L 919.456878244696 67.37198017337107 L 919.3432524326457 67.27719076791445 L 919.2317291234364 67.18189245951821 L 919.1223194693057 67.08609477793381 L 919.015034411128 66.98980730284956 L 918.9098846773197 66.89303966293272 L 918.8068807827667 66.79580153486665 L 918.7060330277724 66.69810264238313 L 918.6073514970283 66.59995275528999 L 918.5108460586054 66.50136168849414 L 918.4165263629669 66.40233930102012 L 918.3244018420039 66.30289549502413 L 918.2344817080917 66.20304021480393 L 918.1467749531688 66.1027834458043 L 918.0612903478375 66.00213521361863 L 917.9780364404872 65.90110558298623 L 917.8970215564392 65.799704656786 L 917.8182537971144 65.69794257502603 L 917.7417410392231 65.59582951382973 L 917.6674909339773 65.4933756844181 L 917.5955109063258 65.3905913320887 L 917.5258081542111 65.28748673519112 L 917.4583896478506 65.18407220409914 L 917.3932621290386 65.08035808017966 L 917.3304321104727 64.97635473475869 L 917.2699058751025 64.87207256808405 L 917.211689475501 64.76752200828555 L 917.1557887332598 64.66271351033203 L 917.1022092384063 64.55765755498592 L 917.0509563488455 64.45236464775525 L 917.0020351898237 64.34684531784296 L 916.9554506534158 64.24111011709415 L 916.9112073980369 64.13516961894075 L 916.8693098479755 64.0290344173443 L 916.8297621929518 63.92271512573653 L 916.7925683876981 63.81622237595798 L 916.7577321515643 63.70956681719489 L 916.7252569681445 63.602759114914264 L 916.6951460849306 63.49580994979732 L 916.6674025129853 63.38873001667144 L 916.642029026643 63.28153002344071 L 916.619028163231 63.17422069001512 L 916.5984022228165 63.066812747238586 L 916.5801532679764 62.959316935815885 L 916.5642831235909 62.85174400523857 L 916.5507933766614 62.74410471271006 L 916.5396853761512 62.636409822069915 L 916.5309602328512 62.52867010271744 L 916.5246188192682 62.4208963285348 L 916.5206617695386 62.313099276809595 L 916.5190894793639 62.20528972715717 L 916.5199021059718 62.09747846044265 L 916.5230995681004 61.98967625770286 L 916.528681546006 61.88189389906824 L 916.5366474814957 61.77414216268484 L 916.5469965779824 61.66643182363649 L 916.5597278005653 61.558773652867366 L 916.5748398761324 61.4511784161048 L 916.592331293489 61.34365687278283 L 916.6122003035077 61.236219774966166 L 916.6344449193044 61.12887786627507 L 916.6590629164359 61.02164188081096 L 916.6860518331229 60.91452254208302 L 916.7154089704962 60.807530561935856 L 916.7471313928668 60.70067663947832 L 916.7812159280187 60.593971460013606 L 916.8176591675267 60.487425693970756 L 916.8564574670975 60.381049995837586 L 916.8976069469331 60.27485500309525 L 916.9411034921202 60.16885133515453 L 916.9869427530402 60.06304959229389 L 917.0351201458054 59.95746035459945 L 917.0856308527167 59.852094180906974 L 917.1384698227453 59.746961607746044 L 917.1936317720384 59.64207314828636 L 917.251111184447 59.537439291286454 L 917.3109023120778 59.43307050004484 L 917.3729991758677 59.32897721135367 L 917.4373955661822 59.22516983445505 L 917.504085043436 59.12165875000019 L 917.5730609387368 59.01845430901127 L 917.6443163545526 58.91556683184637 L 917.7178441654013 58.81300660716748 L 917.7936370185629 58.7107838909116 L 917.8716873348153 58.60890890526517 L 917.9519873091921 58.507391837641855 L 918.0345289117624 58.406242839663825 L 918.1193038884352 58.30547202614659 L 918.2063037617831 58.205089474087515 L 918.2955198318915 58.105105221658164 L 918.3869431772276 58.00552926720046 L 918.4805646555332 57.90637156822687 L 918.5763749047381 57.807642040424646 L 918.6743643438978 57.709350556664305 L 918.7745231741496 57.61150694601232 L 918.8768413796942 57.514120992748204 L 918.981308728796 57.417202435386145 L 919.0879147748075 57.320760965701105 L 919.1966488572127 57.224806227759686 L 919.307500102694 57.12934781695572 L 919.4204574262194 57.03439527905074 L 919.5355095321505 56.93995810921942 L 919.6526449153727 56.84604575110002 L 919.771851862445 56.75266759585011 L 919.8931184527725 56.65983298120741 L 920.0164325597968 56.567551190555996 L 920.1417818522103 56.47583145199805 L 920.269153795188 56.384682937430995 L 920.3985356516419 56.29411476163032 L 920.5299144834939 56.20413598133814 L 920.6632771529705 56.1147555943575 L 920.7986103239159 56.02598253865261 L 920.9359004631258 55.937825691455075 L 921.0751338417006 55.85029386837614 L 921.2162965364184 55.763395822525176 L 921.3593744311275 55.677140243634355 L 921.5043532181577 55.59153575718968 L 921.651218399751 55.50659092356846 L 921.7999552895117 55.42231423718327 L 921.9505490138746 55.33871412563253 L 922.102984513593 55.25579894885771 L 922.2572465452438 55.1735769983074 L 922.4133196827524 55.092056496108135 L 922.5711883189352 55.01124559424221 L 922.7308366670602 54.93115237373246 L 922.8922487624253 54.851784843834196 L 923.0554084639558 54.77315094123426 L 923.2202994558173 54.6952585292574 L 923.3869052490483 54.61811539707989 L 923.555209183208 54.54172925895067 L 923.7251944280433 54.46610775341989 L 923.8968439851716 54.391258442575094 L 924.07014068978 54.317188811284986 L 924.2450672123425 54.24390626645098 L 924.4216060603527 54.171418136266475 L 924.5997395800728 54.09973166948409 L 924.7794499582993 54.028854034690774 L 924.9607192241442 53.95879231959093 L 925.1435292508319 53.88955353029769 L 925.3278617575121 53.82114459063227 L 925.5136983110879 53.753572341431656 L 925.7010203280585 53.68684353986444 L 925.8898090763784 53.62096485875517 L 926.0800456773302 53.55594288591707 L 926.2717111074123 53.49178412349323 L 926.4647862002414 53.42849498730643 L 926.6592516484691 53.366081806217544 L 926.8550880057127 53.304550821492676 L 927.0522756884994 53.24390818617902 L 927.2507949782257 53.18415996448957 L 927.4506260231277 53.12531213119671 L 927.6517488402675 53.067370571034715 L 927.8541433175311 53.01034107811134 L 928.0577892156394 52.95422935532834 L 928.2626661701722 52.89904101381123 L 928.4687536936049 52.84478157234818 L 928.6760311773568 52.79145645683812 L 928.8844778938522 52.73907099974815 L 929.0940729985934 52.687630439580346 L 929.3047955322444 52.637139920347835 L 929.5166244227274 52.58760449106049 L 929.72953848733 52.53902910521993 L 929.9435164348232 52.49141862032429 L 930.1585368675904 52.444777797382365 L 930.3745782837676 52.399111300437596 L 930.5916190793931 52.354423696101605 L 930.8096375505685 52.3107194530976 L 931.028611895628 52.26800294181345 L 931.2485202173198 52.2262784338647 L 931.469340524995 52.18555010166736 L 931.6910507368067 52.14582201802072 L 931.9136286819186 52.10709815570004 L 932.1370521027216 52.06938238705927 L 932.3612986570597 52.032678483643856 L 932.5863459204646 51.996990115813546 L 932.8121713883974 51.96232085237539 L 933.0387524784994 51.928674160226834 L 933.2660665328506 51.89605340400906 L 933.4940908202346 51.8644618457705 L 933.7228025384131 51.833902644640645 L 933.9521788164047 51.80437885651416 L 934.1821967167729 51.775893433745246 L 934.412833237919 51.74844922485244 L 934.6440653163834 51.722048974233765 L 934.8758698291507 51.69669532189228 L 935.1082235959631 51.672390803172085 L 935.3411033816373 51.649137848504814 L 935.5744858983888 51.626938783166544 L 935.8083478081606 51.60579582704531 L 936.0426657249565 51.58571109441911 L 936.27741621718 51.56668659374447 L 936.5125758099775 51.54872422745561 L 936.7481209875859 51.53182579177417 L 936.9840281956835 51.515992976529645 L 937.2202738437463 51.50122736499037 L 937.4568343074061 51.4875304337052 L 937.6936859308139 51.47490355235584 L 937.9308050290045 51.4633479836199 L 938.168167890266 51.45286488304463 L 938.4057507785097 51.443455298931354 L 938.643529935645 51.43512017223063 L 938.8814815839544 51.4278603364482 L 939.1195819284711 51.42167651756158 L 939.3578071593593 51.41656933394751 L 939.5961334542943 51.41253929632009 L 939.8345369808453 51.40958680767973 L 940.0729938988582 51.407712163272826 L 940.31148036284 51.40691555056227 L 940.549972524343 51.40719704920866 L 940.7884465343499 51.40855663106237 L 941.0268785456583 51.41099416016634 L 941.2652447152658 51.414509392769695 L 941.503521206754 51.419101977352106 L 941.7416841926726 51.42477145465894 L 941.9797098569211 51.431517257747196 L 942.2175743971316 51.43933871204218 L 942.4552540270482 51.44823503540498 L 942.6927249789063 51.45820533821068 L 942.9299635058082 51.4692486234373 L 943.1669458840992 51.48136378676553 L 943.4036484157388 51.49454961668913 L 943.6400474306711 51.50880479463608 L 943.8761192891917 51.524127895100484 L 944.1118403843113 51.54051738578506 L 944.347187144117 51.5579716277544 L 944.5821360341289 51.57648887559884 L 944.8166635596536 51.59606727760904 L 945.0507462681344 51.6167048759611 L 945.2843607514951 51.6383996069124 L 945.5174836484822 51.66114930100791 L 945.7500916470003 51.684951683297186 L 945.9821614864434 51.70980437356183 L 946.2136699600209 51.735704886553535 L 946.4445939170784 51.76265063224257 L 946.6749102654126 51.79063891607683 L 946.9045959735805 51.81966693925126 L 947.1336280732029 51.849731798987726 L 947.3619836612605 51.88083048882531 L 947.589639902385 51.91295989892094 L 947.8165740311417 51.94611681636038 L 948.0427633543071 51.980297925479526 L 948.2681852531374 52.01549980819594 L 948.4928171856303 52.0517189443507 L 948.71663668878 52.08895171206036 L 948.9396213808226 52.127194388079175 L 949.1617489634746 52.16644314817141 L 949.3829972241631 52.20669406749378 L 949.6033440382462 52.247943120987884 L 949.8227673712261 52.29018618378274 L 950.0412452809525 52.33341903160728 L 950.2587559198164 52.37763734121275 L 950.4752775369352 52.422836690805035 L 950.6907884803276 52.46901256048684 L 950.9052671990788 52.516160332709674 L 951.1186922454958 52.564275292735616 L 951.3310422772518 52.613352629108746 L 951.5422960595205 52.663387434136325 L 951.7524324670997 52.71437470437956 L 951.9614304865237 52.7663093411539 L 952.1692692181649 52.819186151038956 L 952.3759278783232 52.8729998463978 L 952.5813858013049 52.92774504590574 L 952.7856224414888 52.983416275088445 L 952.9886173753812 53.040007966869396 L 953.1903503036577 53.09751446212657 L 953.3908010531939 53.15593001025836 L 953.5899495790815 53.21524876975863 L 953.7877759666341 53.27546480880087 L 953.9842604333777 53.33657210583136 L 954.1793833310295 53.3985645501713 L 954.3731251474622 53.461435942627936 L 954.5654665086556 53.52517999611441 L 954.7563881806341 53.58979033627848 L 954.9458710713892 53.655260502139996 L 955.1338962327901 53.721583946736914 L 955.3204448624772 53.78875403778004 L 955.5054983057429 53.85676405831625 L 955.6890380573972 53.92560720740017 L 955.8710457636179 53.995276600774254 L 956.051503223786 54.065765271557225 L 956.2303923923058 54.13706617094075 L 956.4076953804096 54.2091721688943 L 956.5833944579464 54.28207605487816 L 956.7574720551547 54.35577053856451 L 956.92991076442 54.43024825056637 L 957.100693342015 54.50550174317461 L 957.2698027098243 54.581523491102686 L 957.4372219570519 54.658305892239156 L 957.6029343419127 54.73584126840789 L 957.7669232933064 54.81412186613588 L 957.9291724124744 54.89313985742859 L 958.08966547464 54.97288734055273 L 958.2483864306308 55.05335634082646 L 958.4053194084834 55.1345388114168 L 958.5604487150307 55.21642663414435 L 958.7137588374716 55.29901162029506 L 958.8652344449213 55.38228551143916 L 959.0148603899454 55.46623998025691 L 959.1626217100742 55.55086663137139 L 959.3085036292987 55.63615700218803 L 959.4524915595485 55.722102563740805 L 959.5945711021508 55.80869472154519 L 959.7347280492695 55.89592481645755 L 959.8729483853267 55.98378412554111 L 960.0092182884041 56.07226386293816 L 960.1435241316249 56.1613551807487 L 960.2758524845167 56.251049169915184 L 960.4061901143543 56.34133686111345 L 960.5345239874837 56.4322092256496 L 960.6608412706244 56.52365717636293 L 960.785129332153 56.615671568534566 L 960.9073757433674 56.70824320080196 L 961.0275682797281 56.80136281607904 L 961.1456949220818 56.89502110248188 L 961.2617438578625 56.98920869425987 L 961.3757034822734 57.083916172732344 L 961.487562399447 57.17913406723036 L 961.5973094235849 57.27485285604382 L 961.704933580076 57.37106296737362 L 961.8104241065945 57.467754780288786 L 961.9137704541755 57.56491862568861 L 962.0149622882705 57.662544787269525 L 962.1139894897804 57.76062350249672 L 962.2108421560673 57.859144963580405 L 962.3055106019457 57.95809931845658 L 962.3979853606496 58.05747667177222 L 962.4882571847804 58.15726708587479 L 962.5763170472308 58.257460581806065 L 962.6621561420878 58.358047140299924 L 962.7457658855138 58.459016702784346 L 962.8271379166038 58.56035917238722 L 962.9062640982227 58.66206441494605 L 962.9831365178181 58.764122260021324 L 963.0577474882123 58.866522501913586 L 963.1300895483703 58.96925490068398 L 963.2001554641465 59.072309183178234 L 963.2679382290075 59.17567504405398 L 963.3334310647335 59.279342146811274 L 963.3966274220954 59.38330012482622 L 963.4575209815101 59.48753858238766 L 963.5161056536725 59.59204709573668 L 963.5723755801641 59.69681521410906 L 963.6263251340393 59.80183246078026 L 963.6779489203876 59.907088334113126 L 963.7272417768733 60.012572308608036 L 963.7741987742519 60.11827383595545 L 963.8188152168627 60.22418234609071 L 963.8610866430988 60.33028724825106 L 963.9010088258526 60.43657793203471 L 963.9385777729393 60.54304376846186 L 963.9737897274953 60.64967411103757 L 964.0066411683547 60.75645829681646 L 964.0371288104005 60.86338564746893 L 964.0652496048942 60.97044547034902 L 964.0910007397796 61.07762705956367 L 964.1143796399648 61.184919697043256 L 964.1353839675791 61.29231265361346 L 964.1540116222073 61.399795190068104 L 964.1702607410996 61.50735655824312 L 964.1841296993575 61.614986002091314 L 964.1956171100968 61.72267275875801 L 964.2047218245859 61.830406059657264 L 964.2114429323611 61.93817513154877 L 964.2157797613171 62.04596919761514 L 964.2177318777747 62.15377747853961 M 964.2178528678306 96.4920458931 L 964.216660407927 96.59985643801662 L 964.2130831474609 96.70765620196859 L 964.2071214441556 96.81543440506935 L 964.1987758941763 96.9231802695884 L 964.188047332071 97.03088302102908 L 964.1749368306872 97.138531889206 L 964.159445701064 97.24611610932205 L 964.1415754923014 97.35362492304485 L 964.1213279914053 97.46104757958265 L 964.0987052231092 97.5683733367593 L 964.0737094496708 97.67559146208852 L 964.0463431706468 97.78269123384712 L 964.0166091226422 97.88966194214719 L 963.9845102790371 97.99649289000702 L 963.950049849689 98.10317339442086 L 963.9132312806122 98.20969278742717 L 963.8740582536328 98.31604041717543 L 963.8325346860211 98.42220564899125 L 963.7886647300991 98.52817786643996 L 963.7424527728257 98.6339464723881 L 963.6939034353584 98.73950089006323 L 963.6430215725903 98.84483056411152 L 963.5898122726654 98.94992496165337 L 963.5342808564692 99.05477357333659 L 963.4764328770972 99.15936591438738 L 963.416274119299 99.2636915256588 L 963.3538105989004 99.36773997467667 L 963.2890485622012 99.47150085668278 L 963.2219944853512 99.5749637956754 L 963.1526550737022 99.67811844544686 L 963.0810372611376 99.78095449061813 L 963.0071482093789 99.8834616476704 L 962.9309953072699 99.98562966597338 L 962.8525861700371 100.08744832881038 L 962.771928638529 100.18890745439998 L 962.6890307784315 100.28999689691415 L 962.6039008794617 100.39070654749288 L 962.5165474545382 100.49102633525506 L 962.426979238931 100.59094622830548 L 962.335205189387 100.69045623473812 L 962.2412344832346 100.78954640363527 L 962.145076517466 100.8882068260626 L 962.0467409077979 100.9864276360601 L 961.9462374877091 101.0841990116286 L 961.843576307458 101.18151117571202 L 961.7387676330769 101.27835439717506 L 961.631821945346 101.37471899177628 L 961.522749938745 101.4705953231365 L 961.4115625203838 101.56597380370249 L 961.2982708089112 101.6608448957057 L 961.1828861334043 101.75519911211595 L 961.0654200322342 101.84902701759025 L 960.9458842519133 101.94231922941623 L 960.82429074592 102.03506641845047 L 960.7006516735037 102.12725931005133 L 960.5749793984683 102.2188886850065 L 960.4472864879368 102.30994538045483 L 960.3175857110938 102.40042029080266 L 960.1858900379088 102.49030436863434 L 960.0522126378396 102.579588625617 L 959.9165668785147 102.66826413339936 L 959.7789663243968 102.75632202450451 L 959.6394247354269 102.84375349321674 L 959.4979560656476 102.93054979646202 L 959.3545744618078 103.01670225468237 L 959.2092942619487 103.10220225270375 L 959.0621299939688 103.18704124059762 L 958.9130963741727 103.27121073453588 L 958.7622083057978 103.3547023176393 L 958.6094808775255 103.4375076408191 L 958.4549293619713 103.51961842361202 L 958.2985692141577 103.60102645500817 L 958.1404160699694 103.68172359427226 L 957.9804857445891 103.7617017717576 L 957.818794230916 103.84095298971312 L 957.6553576979667 103.91946932308304 L 957.4901924892581 103.99724292029944 L 957.3233151211738 104.07426600406745 L 957.1547422813113 104.15053087214287 L 956.9844908268142 104.22602989810241 L 956.812577782686 104.30075553210642 L 956.639020340088 104.37470030165377 L 956.4638358546197 104.44785681232914 L 956.2870418445837 104.52021774854238 L 956.1086559892336 104.59177587426021 L 955.9286961270063 104.66252403372968 L 955.7471802537383 104.73245515219378 L 955.5641265208653 104.80156223659897 L 955.3795532336084 104.86983837629438 L 955.1934788491421 104.93727674372295 L 955.0059219747502 105.0038705951041 L 954.8169013659635 105.06961327110824 L 954.6264359246857 105.13449819752252 L 954.4345446973018 105.19851888590837 L 954.241246872775 105.26166893425032 L 954.0465617807265 105.32394202759615 L 953.8505088895033 105.38533193868841 L 953.6531078042311 105.44583252858716 L 953.4543782648541 105.50543774728384 L 953.2543401441603 105.56414163430621 L 953.0530134457954 105.62193831931454 L 952.8504183022613 105.67882202268845 L 952.6465749729035 105.73478705610502 L 952.4415038418853 105.78982782310756 L 952.2352254161485 105.84393881966523 L 952.0277603233642 105.89711463472344 L 951.8191293098685 105.94934995074503 L 951.609353238589 106.00063954424192 L 951.398453086958 106.0509782862975 L 951.186449944815 106.1003611430795 L 950.9733650122973 106.14878317634341 L 950.759219597721 106.19623954392625 L 950.5440351154487 106.2427255002308 L 950.3278330837494 106.2882363967002 L 950.1106351226463 106.33276768228268 L 949.8924629517543 106.37631490388682 L 949.6733383881087 106.41887370682676 L 949.4532833439833 106.46043983525765 L 949.2323198246993 106.50100913260128 L 949.0104699264243 106.54057754196174 L 948.7877558339633 106.57914110653107 L 948.5641998185398 106.61669596998493 L 948.3398242355694 106.65323837686829 L 948.1146515224231 106.6887646729709 L 947.8887041961847 106.72327130569276 L 947.6620048513985 106.75675482439937 L 947.43457615781 106.78921188076673 L 947.2064408580992 106.82063922911627 L 946.9776217656059 106.85103372673933 L 946.7481417620486 106.8803923342115 L 946.5180237952366 106.90871211569649 L 946.2872908767745 106.93599023923973 L 946.0559660797621 106.96222397705162 L 945.8240725364863 106.98741070578025 L 945.5916334361082 107.0115479067737 L 945.3586720223441 107.03463316633201 L 945.1252115911411 107.05666417594847 L 944.8912754883481 107.07763873254045 L 944.6568871073802 107.09755473866979 L 944.4220698868802 107.11641020275246 L 944.1868473083746 107.13420323925777 L 943.9512428939249 107.1509320688969 L 943.7152802037766 107.16659501880085 L 943.478982834002 107.18119052268763 L 943.242374414141 107.19471712101905 L 943.0054786048383 107.20717346114655 L 942.7683190954779 107.21855829744648 L 942.5309196018127 107.22887049144471 L 942.2933038635942 107.23810901193042 L 942.0554956421986 107.24627293505928 L 941.8175187182495 107.25336144444577 L 941.5793968892411 107.25937383124486 L 941.341153967158 107.26430949422287 L 941.1028137760936 107.26816793981763 L 940.8644001498686 107.27094878218779 L 940.6259369296469 107.27265174325143 L 940.3874479615517 107.27327665271386 L 940.1489570942812 107.27282344808465 L 939.9104881767233 107.27129217468391 L 939.6720650555711 107.26868298563768 L 939.4337115729381 107.2649961418627 L 939.1954515639737 107.26023201204026 L 938.9573088544805 107.2543910725794 L 938.7193072585309 107.24747390756917 L 938.481470576086 107.23948120872033 L 938.2438225906161 107.23041377529609 L 938.0063870667216 107.22027251403225 L 937.7691877477569 107.20905843904646 L 937.5322483534565 107.1967726717369 L 937.2955925775622 107.18341644067004 L 937.0592440854543 107.16899108145788 L 936.8232265117853 107.15349803662431 L 936.5875634581157 107.1369388554609 L 936.3522784905546 107.11931519387196 L 936.1173951374026 107.10062881420897 L 935.8829368867993 107.08088158509435 L 935.6489271843744 107.0600754812345 L 935.415389430903 107.03821258322252 L 935.1823469799662 107.01529507732995 L 934.9498231356145 106.99132525528832 L 934.7178411500386 106.96630551405984 L 934.486424221244 106.94023835559778 L 934.2555954907305 106.91312638659626 L 934.0253780411789 106.88497231822961 L 933.7957948941423 106.85577896588119 L 933.566869007744 106.8255492488619 L 933.338623274382 106.79428619011826 L 933.1110805184394 106.76199291593008 L 932.8842634940021 106.72867265559789 L 932.6581948825836 106.69432874111995 L 932.4328972908567 106.65896460685907 L 932.2083932483926 106.62258378919921 L 931.9847052054087 106.58518992619184 L 931.7618555305228 106.5467867571921 L 931.5398665085166 106.50737812248485 L 931.3187603381076 106.46696796290075 L 931.0985591297282 106.42556031942208 L 930.879284903316 106.38315933277867 L 930.6609595861108 106.33976924303387 L 930.4436050104624 106.29539438916049 L 930.2272429116474 106.25003920860692 L 930.0118949256951 106.20370823685344 L 929.7975825872248 106.15640610695861 L 929.5843273272917 106.108137549096 L 929.3721504712443 106.05890739008117 L 929.1610732365909 106.00872055288902 L 928.9511167308796 105.9575820561614 L 928.7423019495857 105.90549701370541 L 928.5346497740134 105.85247063398188 L 928.3281809692072 105.79850821958458 L 928.1229161818756 105.74361516670999 L 927.9188759383261 105.68779696461766 L 927.7160806424131 105.63105919508126 L 927.5145505734973 105.57340753183051 L 927.3143058844176 105.51484773998365 L 927.115366599476 105.45538567547108 L 926.9177526124353 105.3950272844497 L 926.7214836845294 105.33377860270829 L 926.5265794424876 105.27164575506403 L 926.3330593765717 105.20863495474987 L 926.1409428386269 105.14475250279335 L 925.9502490401471 105.08000478738643 L 925.7609970503531 105.01439828324668 L 925.5732057942862 104.94793955096986 L 925.3868940509155 104.8806352363738 L 925.2020804512601 104.8124920698339 L 925.0187834765261 104.74351686560999 L 924.8370214562578 104.67371652116503 L 924.6568125665063 104.6030980164753 L 924.4781748280101 104.53166841333243 L 924.3011261043941 104.4594348546372 L 924.1256841003833 104.38640456368528 L 923.9518663600319 104.31258484344491 L 923.779690264969 104.2379830758266 L 923.6091730326606 104.16260672094495 L 923.440331714688 104.08646331637262 L 923.2731831950421 104.00956047638662 L 923.1077441884357 103.93190589120688 L 922.9440312386315 103.85350732622719 L 922.7820607167882 103.77437262123871 L 922.621848819823 103.694509689646 L 922.4634115687918 103.61392651767568 L 922.306764807288 103.53263116357778 L 922.1519241998571 103.45063175681996 L 921.9989052304309 103.36793649727457 L 921.8477232007785 103.28455365439865 L 921.6983932289772 103.20049156640701 L 921.5509302478997 103.1157586394384 L 921.4053490037212 103.03036334671489 L 921.2616640544447 102.94431422769459 L 921.1198897684455 102.85761988721772 L 920.9800403230341 102.77028899464605 L 920.8421297030384 102.68233028299609 L 920.7061716994053 102.59375254806568 L 920.5721799078223 102.50456464755453 L 920.4401677273565 102.41477550017834 L 920.3101483591162 102.32439408477703 L 920.1821348049297 102.23342943941684 L 920.0561398660458 102.14189066048647 L 919.9321761418535 102.04978690178756 L 919.8102560286218 101.95712737361922 L 919.6903917182603 101.86392134185704 L 919.5725951971004 101.77017812702654 L 919.456878244696 101.67590710337106 L 919.3432524326457 101.58111769791444 L 919.2317291234364 101.48581938951821 L 919.1223194693057 101.39002170793381 L 919.015034411128 101.29373423284954 L 918.9098846773197 101.19696659293271 L 918.8068807827667 101.09972846486664 L 918.7060330277724 101.00202957238312 L 918.6073514970283 100.90387968528998 L 918.5108460586054 100.80528861849413 L 918.4165263629669 100.70626623102011 L 918.3244018420039 100.60682242502413 L 918.2344817080917 100.50696714480392 L 918.1467749531688 100.40671037580431 L 918.0612903478375 100.30606214361863 L 917.9780364404872 100.20503251298624 L 917.8970215564392 100.103631586786 L 917.8182537971144 100.00186950502604 L 917.7417410392231 99.89975644382972 L 917.6674909339773 99.79730261441809 L 917.5955109063258 99.69451826208869 L 917.5258081542111 99.59141366519111 L 917.4583896478506 99.48799913409913 L 917.3932621290386 99.38428501017967 L 917.3304321104727 99.28028166475868 L 917.2699058751025 99.17599949808405 L 917.211689475501 99.07144893828554 L 917.1557887332598 98.96664044033201 L 917.1022092384063 98.86158448498593 L 917.0509563488455 98.75629157775525 L 917.0020351898237 98.65077224784297 L 916.9554506534158 98.54503704709414 L 916.9112073980369 98.43909654894075 L 916.8693098479755 98.33296134734431 L 916.8297621929518 98.22664205573652 L 916.7925683876981 98.12014930595798 L 916.7577321515643 98.01349374719489 L 916.7252569681445 97.90668604491427 L 916.6951460849306 97.79973687979731 L 916.6674025129853 97.69265694667143 L 916.642029026643 97.58545695344071 L 916.619028163231 97.47814762001512 L 916.5984022228165 97.37073967723859 L 916.5801532679764 97.26324386581588 L 916.5642831235909 97.15567093523856 L 916.5507933766614 97.04803164271006 L 916.5396853761512 96.94033675206991 L 916.5309602328512 96.83259703271744 L 916.5246188192682 96.7248232585348 L 916.5206617695386 96.6170262068096 L 916.5190894793639 96.50921665715717" stroke-miterlimit="10" stroke-width="2.7769845610000004" stroke-dasharray=""/></g><g><g/><text fill="black" stroke="none" font-family="sans-serif" font-size="11pt" font-style="normal" font-weight="normal" text-decoration="normal" x="921.6283055981705" y="124.800953212" text-anchor="start" dominant-baseline="alphabetic" xml:space="preserve">Redis</text></g></g><g><g><g><rect fill="white" stroke="none" x="199.88363099205728" y="162.371920802" width="131.2068811804297" height="21.23576429"/></g><text fill="black" stroke="none" font-family="sans-serif" font-size="11pt" font-style="normal" font-weight="normal" text-decoration="normal" x="202.33391148705726" y="177.07360377199998" text-anchor="start" dominant-baseline="alphabetic" xml:space="preserve">User change status</text></g><g><path fill="none" stroke="black" paint-order="fill stroke markers" d=" M 147.16067319626953 183.607685092 L 370.36415258460806 183.607685092" stroke-miterlimit="10" stroke-width="1.3612669416666667" stroke-dasharray=""/><g transform="translate(383.8134699682747,183.607685092) translate(-383.8134699682747,-183.607685092)"><path fill="black" stroke="none" paint-order="stroke fill markers" d=" M 370.20080055160804 176.80135038366666 L 383.8134699682747 183.607685092 L 370.20080055160804 190.41401980033334 Z"/></g></g><path fill="white" stroke="black" paint-order="fill stroke markers" d=" M 8.16760165 208.11049004200004 L 271.4520617725391 208.11049004200004 L 286.15374474253906 222.81217301200004 L 286.15374474253906 278.351864232 L 8.16760165 278.351864232 L 8.16760165 208.11049004200004 M 271.4520617725391 208.11049004200004 L 271.4520617725391 222.81217301200004 L 286.15374474253906 222.81217301200004" stroke-miterlimit="10" stroke-width="1.3612669416666667" stroke-dasharray=""/><g><text fill="black" stroke="none" font-family="sans-serif" font-size="11pt" font-style="normal" font-weight="normal" text-decoration="normal" x="31.036886269999997" y="230.979774662" text-anchor="start" dominant-baseline="alphabetic" xml:space="preserve">A user can manually change status </text><text fill="black" stroke="none" font-family="sans-serif" font-size="11pt" font-style="normal" font-weight="normal" text-decoration="normal" x="31.036886269999997" y="247.314977962" text-anchor="start" dominant-baseline="alphabetic" xml:space="preserve">OR a status can be changed </text><text fill="black" stroke="none" font-family="sans-serif" font-size="11pt" font-style="normal" font-weight="normal" text-decoration="normal" x="31.036886269999997" y="263.650181262" text-anchor="start" dominant-baseline="alphabetic" xml:space="preserve">by some client-side action</text></g><g><g><rect fill="white" stroke="none" x="415.2372105399414" y="302.854669182" width="180.319262161875" height="21.23576429"/></g><text fill="black" stroke="none" font-family="sans-serif" font-size="11pt" font-style="normal" font-weight="normal" text-decoration="normal" x="417.6874910349414" y="317.556352152" text-anchor="start" dominant-baseline="alphabetic" xml:space="preserve">Trigger </text><text fill="black" stroke="none" font-family="sans-serif" font-size="11pt" font-style="normal" font-weight="bold" text-decoration="normal" x="467.65166339822264" y="317.556352152" text-anchor="start" dominant-baseline="alphabetic" xml:space="preserve">updateUserStatus</text></g><g><path fill="none" stroke="black" paint-order="fill stroke markers" d=" M 383.8134699682747 324.09043347200003 L 613.5308958898164 324.09043347200003" stroke-miterlimit="10" stroke-width="1.3612669416666667" stroke-dasharray=""/><g transform="translate(626.9802132734831,324.09043347200003) translate(-626.9802132734831,-324.09043347200003)"><path fill="black" stroke="none" paint-order="stroke fill markers" d=" M 613.3675438568164 317.2840987636667 L 626.9802132734831 324.09043347200003 L 613.3675438568164 330.89676818033337 Z"/></g></g><path fill="white" stroke="black" paint-order="fill stroke markers" d=" M 523.0121814000652 348.593238422 L 716.2465621769012 348.593238422 L 730.9482451469012 363.294921392 L 730.9482451469012 418.834612612 L 523.0121814000652 418.834612612 L 523.0121814000652 348.593238422 M 716.2465621769012 348.593238422 L 716.2465621769012 363.294921392 L 730.9482451469012 363.294921392" stroke-miterlimit="10" stroke-width="1.3612669416666667" stroke-dasharray=""/><g><text fill="black" stroke="none" font-family="sans-serif" font-size="11pt" font-style="normal" font-weight="normal" text-decoration="normal" x="545.8814660200651" y="371.462523042" text-anchor="start" dominant-baseline="alphabetic" xml:space="preserve">The status being set </text><text fill="black" stroke="none" font-family="sans-serif" font-size="11pt" font-style="normal" font-weight="normal" text-decoration="normal" x="545.8814660200651" y="387.797726342" text-anchor="start" dominant-baseline="alphabetic" xml:space="preserve">will depend on the </text><text fill="black" stroke="none" font-family="sans-serif" font-size="11pt" font-style="normal" font-weight="normal" text-decoration="normal" x="545.8814660200651" y="404.13292964199997" text-anchor="start" dominant-baseline="alphabetic" xml:space="preserve">endpoint being triggered.</text></g><g><g><rect fill="white" stroke="none" x="671.6106355875553" y="443.337417562" width="224.12739814820313" height="21.23576429"/></g><text fill="black" stroke="none" font-family="sans-serif" font-size="11pt" font-style="normal" font-weight="normal" text-decoration="normal" x="674.0609160825553" y="458.03910053199996" text-anchor="start" dominant-baseline="alphabetic" xml:space="preserve">Update status to the received one</text></g><g><path fill="none" stroke="black" paint-order="fill stroke markers" d=" M 626.9802132734831 464.573181852 L 926.919138666164 464.573181852" stroke-miterlimit="10" stroke-width="1.3612669416666667" stroke-dasharray=""/><g transform="translate(940.3684560498307,464.573181852) translate(-940.3684560498307,-464.573181852)"><path fill="black" stroke="none" paint-order="stroke fill markers" d=" M 926.755786633164 457.76684714366667 L 940.3684560498307 464.573181852 L 926.755786633164 471.37951656033334 Z"/></g></g><path fill="white" stroke="black" paint-order="fill stroke markers" d=" M 728.0325271427214 489.075986802 L 1138.00270198694 489.075986802 L 1152.7043849569402 503.77766977199997 L 1152.7043849569402 526.646954392 L 728.0325271427214 526.646954392 L 728.0325271427214 489.075986802 M 1138.00270198694 489.075986802 L 1138.00270198694 503.77766977199997 L 1152.7043849569402 503.77766977199997" stroke-miterlimit="10" stroke-width="1.3612669416666667" stroke-dasharray=""/><g><text fill="black" stroke="none" font-family="sans-serif" font-size="11pt" font-style="normal" font-weight="normal" text-decoration="normal" x="750.9018117627213" y="511.94527142199996" text-anchor="start" dominant-baseline="alphabetic" xml:space="preserve">The status will be added to the existing session hash entry</text></g><g><g><rect fill="white" stroke="none" x="691.1882875650944" y="551.1497593419999" width="184.972094193125" height="21.23576429"/></g><text fill="black" stroke="none" font-family="sans-serif" font-size="11pt" font-style="normal" font-weight="normal" text-decoration="normal" x="693.6385680600944" y="565.8514423119999" text-anchor="start" dominant-baseline="alphabetic" xml:space="preserve">Set expiration time to </text><text fill="black" stroke="none" font-family="sans-serif" font-size="11pt" font-style="normal" font-weight="bold" text-decoration="normal" x="835.4209014341178" y="565.8514423119999" text-anchor="start" dominant-baseline="alphabetic" xml:space="preserve">2 min</text></g><g><path fill="none" stroke="black" paint-order="fill stroke markers" d=" M 626.9802132734831 572.385523632 L 926.919138666164 572.385523632" stroke-miterlimit="10" stroke-width="1.3612669416666667" stroke-dasharray=""/><g transform="translate(940.3684560498307,572.385523632) translate(-940.3684560498307,-572.385523632)"><path fill="black" stroke="none" paint-order="stroke fill markers" d=" M 926.755786633164 565.5791889236666 L 940.3684560498307 572.385523632 L 926.755786633164 579.1918583403333 Z"/></g></g><path fill="white" stroke="black" paint-order="fill stroke markers" d=" M 635.1478149234831 596.888328582 L 1230.8874142061782 596.888328582 L 1245.5890971761783 611.590011552 L 1245.5890971761783 634.459296172 L 635.1478149234831 634.459296172 L 635.1478149234831 596.888328582 M 1230.8874142061782 596.888328582 L 1230.8874142061782 611.590011552 L 1245.5890971761783 611.590011552" stroke-miterlimit="10" stroke-width="1.3612669416666667" stroke-dasharray=""/><g><text fill="black" stroke="none" font-family="sans-serif" font-size="11pt" font-style="normal" font-weight="normal" text-decoration="normal" x="658.017099543483" y="619.757613202" text-anchor="start" dominant-baseline="alphabetic" xml:space="preserve">Keep in mind that this expiration time should be aligned with the </text><text fill="black" stroke="none" font-family="sans-serif" font-size="11pt" font-style="normal" font-weight="bold" text-decoration="normal" x="1076.0770360669205" y="619.757613202" text-anchor="start" dominant-baseline="alphabetic" xml:space="preserve">global</text><text fill="black" stroke="none" font-family="sans-serif" font-size="11pt" font-style="normal" font-weight="normal" text-decoration="normal" x="1119.240976496608" y="619.757613202" text-anchor="start" dominant-baseline="alphabetic" xml:space="preserve"> expiration time.</text></g><g><g><rect fill="white" stroke="none" x="403.1434605399414" y="658.9621011219999" width="204.506762161875" height="21.23576429"/></g><text fill="black" stroke="none" font-family="sans-serif" font-size="11pt" font-style="normal" font-weight="normal" text-decoration="normal" x="405.5937410349414" y="673.6637840919999" text-anchor="start" dominant-baseline="alphabetic" xml:space="preserve">Notify caller with current status</text></g><g><path fill="none" stroke="black" paint-order="fill stroke markers" d=" M 626.9802132734831 680.1978654119999 L 397.26278735194137 680.1978654119999" stroke-miterlimit="10" stroke-width="1.3612669416666667" stroke-dasharray=""/><g transform="translate(383.8134699682747,680.1978654119999) translate(-383.8134699682747,-680.1978654119999)"><path fill="black" stroke="none" paint-order="stroke fill markers" d=" M 397.4261393849414 673.3915307036666 L 383.8134699682747 680.1978654119999 L 397.4261393849414 687.0042001203333 Z"/></g></g><g><g><rect fill="white" stroke="none" x="166.49066376793618" y="704.7006703619999" width="197.99281562867188" height="21.23576429"/></g><text fill="black" stroke="none" font-family="sans-serif" font-size="11pt" font-style="normal" font-weight="normal" text-decoration="normal" x="168.94094426293617" y="719.4023533319998" text-anchor="start" dominant-baseline="alphabetic" xml:space="preserve">Notify user with current status</text></g><g><path fill="none" stroke="black" paint-order="fill stroke markers" d=" M 383.8134699682747 725.9364346519999 L 160.6099905799362 725.9364346519999" stroke-miterlimit="10" stroke-width="1.3612669416666667" stroke-dasharray=""/><g transform="translate(147.16067319626953,725.9364346519999) translate(-147.16067319626953,-725.9364346519999)"><path fill="black" stroke="none" paint-order="stroke fill markers" d=" M 160.7733426129362 719.1300999436666 L 147.16067319626953 725.9364346519999 L 160.7733426129362 732.7427693603332 Z"/></g></g></g><g/><g/><g/><g/></g></svg>