<svg version="1.1" xmlns="http://www.w3.org/2000/svg" xmlns:xlink="http://www.w3.org/1999/xlink" width="995" height="799"><desc>title%20User%20Log%20into%20platform%0A%0Aactor%20Client%20%23blue%0Aboundary%20gRPC%20Endpoint%0Acontrol%20Service%0Adatabase%20Redis%20%23red%0A%0AClient-%3EgRPC%20Endpoint%3AUser%20logs%20into%20platform%0A%0Anote%20over%20Client%3AWhen%20a%20user%20logs%20in%5Cn**onOnline**%20is%20triggered%20%5Cnautomatically%0A%0AgRPC%20Endpoint-%3EService%3ATrigger%20**updateUserStatus**%0A%0Anote%20over%20Service%3AStatus%20is%20set%20as%20**ONLINE**%20%5Cnwhen%20user%20logs%20in.%0A%0A%0AService-%3ERedis%3AUpdate%20status%20as%20**ONLINE**%0A%0Anote%20over%20Redis%3AThe%20status%20will%20be%20added%20to%20%5Cnthe%20existing%20session%20hash%20entry%0A%0AService-%3ERedis%3ASet%20expiration%20time%20to%20**2%20min**%0A%0Anote%20over%20Redis%3AKeep%20in%20mind%20that%20this%20expiration%20time%20%5Cnshould%20be%20aligned%20with%20the%20**global**%20expiration%20time%0A%0A%0AgRPC%20Endpoint%3C-Service%3ANotify%20caller%20with%20current%20status%0A%0AClient%3C-gRPC%20Endpoint%3ANotify%20user%20with%20current%20status</desc><defs/><g><g/><g/><g/><g/><g/><g/><g/><g/><g/><g/><g/><g/><g/><g/><g/><g/><g/><g/><g/><g/><g/><g/><g/><g><rect fill="white" stroke="none" x="0" y="0" width="995" height="799"/></g><g><text fill="black" stroke="none" font-family="sans-serif" font-size="16.5pt" font-style="normal" font-weight="normal" text-decoration="normal" x="389.63534793801756" y="24.50280495" text-anchor="start" dominant-baseline="alphabetic" xml:space="preserve">User Log into platform</text></g><g/><g><path fill="none" stroke="black" paint-order="fill stroke markers" d=" M 103.13065152878906 129.701514202 L 103.13065152878906 799.4448495019999" stroke-miterlimit="10" stroke-width="1.3612669416666667" stroke-dasharray="12.565541,5.445067766666667"/><path fill="none" stroke="black" paint-order="fill stroke markers" d=" M 339.78344830079425 129.701514202 L 339.78344830079425 799.4448495019999" stroke-miterlimit="10" stroke-width="1.3612669416666667" stroke-dasharray="12.565541,5.445067766666667"/><path fill="none" stroke="black" paint-order="fill stroke markers" d=" M 582.9501916060026 129.701514202 L 582.9501916060026 799.4448495019999" stroke-miterlimit="10" stroke-width="1.3612669416666667" stroke-dasharray="12.565541,5.445067766666667"/><path fill="none" stroke="black" paint-order="fill stroke markers" d=" M 806.5822669424609 129.701514202 L 806.5822669424609 799.4448495019999" stroke-miterlimit="10" stroke-width="1.3612669416666667" stroke-dasharray="12.565541,5.445067766666667"/></g><g><g><path fill="blue" stroke="black" paint-order="fill stroke markers" d=" M 112.44171740978906 60.60360424300001 A 9.311065881 9.311065881 0 1 1 112.4417127542565 60.594293178670846 M 103.13065152878906 69.91467012400001 L 103.13065152878906 89.84361815000001 M 91.36930515278905 77.102159576 L 114.89199790478906 77.102159576 M 103.13065152878906 89.84361815000001 L 91.36930515278905 108.465749912 M 103.13065152878906 89.84361815000001 L 114.89199790478906 108.465749912" stroke-miterlimit="10" stroke-width="2.7769845610000004" stroke-dasharray=""/></g><g><g/><text fill="black" stroke="none" font-family="sans-serif" font-size="11pt" font-style="normal" font-weight="normal" text-decoration="normal" x="84.3905010771289" y="124.800953212" text-anchor="start" dominant-baseline="alphabetic" xml:space="preserve">Client</text></g><g><path fill="white" stroke="black" paint-order="fill stroke markers" d=" M 372.20882685129425 82.819480731 A 24.2577769005 24.2577769005 0 1 1 372.2088147224068 82.79522295814245 M 308.7465620307942 57.17321154999999 L 308.7465620307942 108.465749912 M 307.35806975029425 82.819480731 L 323.69327305029424 82.819480731" stroke-miterlimit="10" stroke-width="2.7769845610000004" stroke-dasharray=""/></g><g><g/><text fill="black" stroke="none" font-family="sans-serif" font-size="11pt" font-style="normal" font-weight="normal" text-decoration="normal" x="289.2573328833138" y="124.800953212" text-anchor="start" dominant-baseline="alphabetic" xml:space="preserve">gRPC Endpoint</text></g><g><path fill="white" stroke="black" paint-order="fill stroke markers" d=" M 607.2079685065025 82.819480731 A 24.2577769005 24.2577769005 0 1 1 607.2079563776151 82.79522295814245 M 579.6831509460026 58.561703830499994 L 589.4842729260025 50.39410218049999 M 579.6831509460026 58.561703830499994 L 589.4842729260025 66.72930548049999" stroke-miterlimit="10" stroke-width="2.7769845610000004" stroke-dasharray=""/></g><g><g/><text fill="black" stroke="none" font-family="sans-serif" font-size="11pt" font-style="normal" font-weight="normal" text-decoration="normal" x="558.5085488447721" y="124.800953212" text-anchor="start" dominant-baseline="alphabetic" xml:space="preserve">Service</text></g><g><path fill="red" stroke="black" paint-order="fill stroke markers" d=" M 782.732870124461 97.684515734 L 782.732870124461 63.380588804000006 L 830.4316637604609 63.380588804000006 L 830.4316637604609 97.684515734" stroke-miterlimit="10" stroke-width="2.7769845610000004" stroke-dasharray=""/><path fill="red" stroke="black" paint-order="fill stroke markers" d=" M 830.4316637604609 62.1881189631 L 830.4304713005572 62.29592950801663 L 830.4268940400912 62.403729271968594 L 830.4209323367859 62.51150747506936 L 830.4125867868065 62.619253339588404 L 830.4018582247013 62.72695609102909 L 830.3887477233175 62.834604959206004 L 830.3732565936942 62.94218917932205 L 830.3553863849316 63.04969799304486 L 830.3351388840356 63.15712064958265 L 830.3125161157394 63.2644464067593 L 830.287520342301 63.371664532088516 L 830.260154063277 63.47876430384712 L 830.2304200152724 63.58573501214718 L 830.1983211716673 63.692565960007016 L 830.1638607423192 63.79924646442086 L 830.1270421732424 63.90576585742718 L 830.0878691462631 64.01211348717543 L 830.0463455786513 64.11827871899126 L 830.0024756227293 64.22425093643996 L 829.9562636654559 64.3300195423881 L 829.9077143279886 64.43557396006322 L 829.8568324652206 64.54090363411153 L 829.8036231652957 64.64599803165338 L 829.7480917490994 64.75084664333659 L 829.6902437697274 64.85543898438739 L 829.6300850119293 64.95976459565881 L 829.5676214915306 65.06381304467668 L 829.5028594548314 65.16757392668278 L 829.4358053779814 65.27103686567541 L 829.3664659663325 65.37419151544687 L 829.2948481537678 65.47702756061814 L 829.2209591020091 65.5795347176704 L 829.1448061999001 65.68170273597339 L 829.0663970626673 65.7835213988104 L 828.9857395311592 65.88498052439998 L 828.9028416710618 65.98606996691414 L 828.8177117720919 66.08677961749288 L 828.7303583471685 66.18709940525505 L 828.6407901315613 66.28701929830548 L 828.5490160820173 66.38652930473813 L 828.4550453758648 66.48561947363528 L 828.3588874100963 66.58427989606261 L 828.2605518004282 66.6825007060601 L 828.1600483803393 66.7802720816286 L 828.0573872000882 66.87758424571203 L 827.9525785257072 66.97442746717506 L 827.8456328379763 67.07079206177627 L 827.7365608313753 67.1666683931365 L 827.625373413014 67.2620468737025 L 827.5120817015414 67.35691796570569 L 827.3966970260345 67.45127218211596 L 827.2792309248645 67.54510008759026 L 827.1596951445435 67.63839229941624 L 827.0381016385503 67.73113948845047 L 826.9144625661339 67.82333238005134 L 826.7887902910985 67.9149617550065 L 826.6610973805671 68.00601845045483 L 826.531396603724 68.09649336080267 L 826.3997009305391 68.18637743863435 L 826.2660235304699 68.27566169561702 L 826.1303777711449 68.36433720339936 L 825.9927772170271 68.45239509450451 L 825.8532356280572 68.53982656321674 L 825.7117669582778 68.62662286646201 L 825.5683853544381 68.71277532468237 L 825.4231051545789 68.79827532270376 L 825.2759408865991 68.88311431059763 L 825.126907266803 68.9672838045359 L 824.976019198428 69.0507753876393 L 824.8232917701557 69.13358071081912 L 824.6687402546015 69.21569149361203 L 824.512380106788 69.29709952500816 L 824.3542269625997 69.37779666427225 L 824.1942966372194 69.45777484175761 L 824.0326051235462 69.53702605971311 L 823.8691685905969 69.61554239308303 L 823.7040033818884 69.69331599029945 L 823.537126013804 69.77033907406746 L 823.3685531739416 69.84660394214286 L 823.1983017194444 69.92210296810242 L 823.0263886753163 69.99682860210643 L 822.8528312327182 70.07077337165379 L 822.6776467472499 70.14392988232913 L 822.5008527372139 70.21629081854239 L 822.3224668818639 70.28784894426022 L 822.1425070196366 70.35859710372968 L 821.9609911463685 70.42852822219379 L 821.7779374134956 70.49763530659898 L 821.5933641262386 70.5659114462944 L 821.4072897417724 70.63334981372294 L 821.2197328673805 70.69994366510412 L 821.0307122585938 70.76568634110825 L 820.8402468173159 70.83057126752253 L 820.6483555899321 70.89459195590838 L 820.4550577654053 70.95774200425032 L 820.2603726733568 71.02001509759614 L 820.0643197821336 71.08140500868842 L 819.8669186968614 71.14190559858717 L 819.6681891574843 71.20151081728383 L 819.4681510367906 71.26021470430622 L 819.2668243384256 71.31801138931453 L 819.0642291948916 71.37489509268845 L 818.8603858655338 71.43086012610503 L 818.6553147345155 71.48590089310757 L 818.4490363087788 71.54001188966522 L 818.2415712159944 71.59318770472345 L 818.0329402024987 71.64542302074504 L 817.8231641312193 71.69671261424193 L 817.6122639795883 71.7470513562975 L 817.4002608374452 71.79643421307951 L 817.1871759049276 71.84485624634341 L 816.9730304903512 71.89231261392625 L 816.7578460080789 71.93879857023082 L 816.5416439763796 71.9843094667002 L 816.3244460152765 72.02884075228269 L 816.1062738443845 72.07238797388683 L 815.887149280739 72.11494677682676 L 815.6670942366136 72.15651290525764 L 815.4461307173295 72.19708220260128 L 815.2242808190546 72.23665061196175 L 815.0015667265935 72.27521417653107 L 814.77801071117 72.31276903998494 L 814.5536351281996 72.3493114468683 L 814.3284624150533 72.38483774297092 L 814.1025150888149 72.41934437569277 L 813.8758157440287 72.45282789439938 L 813.6483870504403 72.48528495076673 L 813.4202517507294 72.51671229911628 L 813.1914326582362 72.54710679673934 L 812.9619526546788 72.5764654042115 L 812.7318346878668 72.60478518569649 L 812.5011017694047 72.63206330923974 L 812.2697769723924 72.65829704705163 L 812.0378834291165 72.68348377578025 L 811.8054443287384 72.70762097677371 L 811.5724829149743 72.73070623633201 L 811.3390224837714 72.75273724594847 L 811.1050863809784 72.77371180254045 L 810.8706980000104 72.79362780866978 L 810.6358807795104 72.81248327275246 L 810.4006582010048 72.83027630925778 L 810.1650537865552 72.84700513889692 L 809.9290910964069 72.86266808880085 L 809.6927937266322 72.87726359268764 L 809.4561853067712 72.89079019101906 L 809.2192894974686 72.90324653114655 L 808.9821299881081 72.91463136744649 L 808.7447304944429 72.9249435614447 L 808.5071147562245 72.93418208193043 L 808.2693065348288 72.94234600505929 L 808.0313296108798 72.94943451444577 L 807.7932077818714 72.95544690124485 L 807.5549648597882 72.96038256422287 L 807.3166246687239 72.96424100981763 L 807.0782110424989 72.9670218521878 L 806.8397478222771 72.96872481325143 L 806.601258854182 72.96934972271386 L 806.3627679869114 72.96889651808466 L 806.1242990693536 72.96736524468392 L 805.8858759482014 72.96475605563768 L 805.6475224655684 72.96106921186271 L 805.409262456604 72.95630508204027 L 805.1711197471108 72.9504641425794 L 804.9331181511611 72.94354697756918 L 804.6952814687163 72.93555427872033 L 804.4576334832464 72.9264868452961 L 804.2201979593518 72.91634558403224 L 803.9829986403871 72.90513150904647 L 803.7460592460867 72.89284574173689 L 803.5094034701924 72.87948951067006 L 803.2730549780846 72.86506415145789 L 803.0370374044155 72.84957110662431 L 802.801374350746 72.8330119254609 L 802.5660893831848 72.81538826387197 L 802.3312060300328 72.79670188420899 L 802.0967477794295 72.77695465509434 L 801.8627380770047 72.7561485512345 L 801.6292003235333 72.73428565322251 L 801.3961578725964 72.71136814732996 L 801.1636340282447 72.68739832528833 L 800.9316520426688 72.66237858405984 L 800.7002351138742 72.63631142559778 L 800.4694063833607 72.60919945659627 L 800.2391889338091 72.58104538822961 L 800.0096057867726 72.55185203588118 L 799.7806799003743 72.5216223188619 L 799.5524341670123 72.49035926011825 L 799.3248914110696 72.45806598593009 L 799.0980743866323 72.4247457255979 L 798.8720057752139 72.39040181111994 L 798.6467081834869 72.35503767685907 L 798.4222041410228 72.31865685919922 L 798.1985160980389 72.28126299619186 L 797.975666423153 72.24285982719209 L 797.7536774011469 72.20345119248485 L 797.5325712307379 72.16304103290075 L 797.3123700223584 72.12163338942209 L 797.0930957959463 72.07923240277869 L 796.8747704787411 72.03584231303388 L 796.6574159030927 71.99146745916049 L 796.4410538042777 71.94611227860693 L 796.2257058183253 71.89978130685344 L 796.0113934798551 71.85247917695861 L 795.798138219922 71.80421061909601 L 795.5859613638745 71.75498046008119 L 795.3748841292212 71.70479362288901 L 795.1649276235098 71.65365512616141 L 794.9561128422159 71.60157008370541 L 794.7484606666436 71.54854370398188 L 794.5419918618375 71.49458128958457 L 794.3367270745058 71.43968823671 L 794.1326868309563 71.38387003461766 L 793.9298915350433 71.32713226508127 L 793.7283614661276 71.26948060183051 L 793.5281167770479 71.21092080998365 L 793.3291774921063 71.15145874547107 L 793.1315635050655 71.0911003544497 L 792.9352945771597 71.0298516727083 L 792.7403903351178 70.96771882506403 L 792.5468702692019 70.90470802474988 L 792.3547537312571 70.84082557279336 L 792.1640599327774 70.77607785738643 L 791.9748079429834 70.71047135324669 L 791.7870166869164 70.64401262096986 L 791.6007049435458 70.5767083063738 L 791.4158913438904 70.50856513983389 L 791.2325943691563 70.43958993560999 L 791.0508323488882 70.36978959116503 L 790.8706234591366 70.29917108647531 L 790.6919857206403 70.22774148333244 L 790.5149369970244 70.1555079246372 L 790.3394949930135 70.08247763368529 L 790.1656772526621 70.00865791344492 L 789.9935011575992 69.9340561458266 L 789.8229839252908 69.85867979094495 L 789.6541426073182 69.78253638637263 L 789.4869940876723 69.70563354638664 L 789.321555081066 69.62797896120689 L 789.1578421312618 69.54958039622719 L 788.9958716094185 69.47044569123871 L 788.8356597124532 69.39058275964601 L 788.677222461422 69.30999958767568 L 788.5205756999183 69.22870423357777 L 788.3657350924874 69.14670482681996 L 788.212716123061 69.06400956727457 L 788.0615340934088 68.98062672439866 L 787.9122041216075 68.89656463640702 L 787.76474114053 68.8118317094384 L 787.6191598963514 68.72643641671489 L 787.475474947075 68.6403872976946 L 787.3337006610758 68.55369295721772 L 787.1938512156644 68.46636206464606 L 787.0559405956686 68.37840335299609 L 786.9199825920356 68.28982561806569 L 786.7859908004525 68.20063771755453 L 786.6539786199868 68.11084857017835 L 786.5239592517464 68.02046715477704 L 786.3959456975599 67.92950250941684 L 786.269950758676 67.83796373048648 L 786.1459870344837 67.74585997178757 L 786.024066921252 67.65320044361923 L 785.9042026108906 67.55999441185705 L 785.7864060897307 67.46625119702654 L 785.6706891373262 67.37198017337107 L 785.557063325276 67.27719076791445 L 785.4455400160666 67.18189245951821 L 785.336130361936 67.08609477793381 L 785.2288453037582 66.98980730284956 L 785.12369556995 66.89303966293272 L 785.020691675397 66.79580153486665 L 784.9198439204026 66.69810264238313 L 784.8211623896585 66.59995275528999 L 784.7246569512356 66.50136168849414 L 784.6303372555972 66.40233930102012 L 784.5382127346342 66.30289549502413 L 784.448292600722 66.20304021480393 L 784.360585845799 66.1027834458043 L 784.2751012404677 66.00213521361863 L 784.1918473331175 65.90110558298623 L 784.1108324490694 65.799704656786 L 784.0320646897446 65.69794257502603 L 783.9555519318534 65.59582951382973 L 783.8813018266076 65.4933756844181 L 783.809321798956 65.3905913320887 L 783.7396190468413 65.28748673519112 L 783.6722005404808 65.18407220409914 L 783.6070730216688 65.08035808017966 L 783.5442430031029 64.97635473475869 L 783.4837167677327 64.87207256808405 L 783.4255003681312 64.76752200828555 L 783.36959962589 64.66271351033203 L 783.3160201310366 64.55765755498592 L 783.2647672414757 64.45236464775525 L 783.2158460824539 64.34684531784296 L 783.1692615460461 64.24111011709415 L 783.1250182906672 64.13516961894075 L 783.0831207406058 64.0290344173443 L 783.043573085582 63.92271512573653 L 783.0063792803284 63.81622237595798 L 782.9715430441945 63.70956681719489 L 782.9390678607748 63.602759114914264 L 782.9089569775608 63.49580994979732 L 782.8812134056155 63.38873001667144 L 782.8558399192732 63.28153002344071 L 782.8328390558612 63.17422069001512 L 782.8122131154468 63.066812747238586 L 782.7939641606066 62.959316935815885 L 782.7780940162212 62.85174400523857 L 782.7646042692917 62.74410471271006 L 782.7534962687814 62.636409822069915 L 782.7447711254814 62.52867010271744 L 782.7384297118984 62.4208963285348 L 782.7344726621689 62.313099276809595 L 782.7329003719941 62.20528972715717 L 782.7337129986021 62.09747846044265 L 782.7369104607307 61.98967625770286 L 782.7424924386363 61.88189389906824 L 782.750458374126 61.77414216268484 L 782.7608074706127 61.66643182363649 L 782.7735386931955 61.558773652867366 L 782.7886507687626 61.4511784161048 L 782.8061421861192 61.34365687278283 L 782.8260111961381 61.236219774966166 L 782.8482558119347 61.12887786627507 L 782.8728738090662 61.02164188081096 L 782.8998627257531 60.91452254208302 L 782.9292198631265 60.807530561935856 L 782.960942285497 60.70067663947832 L 782.995026820649 60.593971460013606 L 783.031470060157 60.487425693970756 L 783.0702683597277 60.381049995837586 L 783.1114178395634 60.27485500309525 L 783.1549143847504 60.16885133515453 L 783.2007536456705 60.06304959229389 L 783.2489310384357 59.95746035459945 L 783.2994417453469 59.852094180906974 L 783.3522807153755 59.746961607746044 L 783.4074426646687 59.64207314828636 L 783.4649220770773 59.537439291286454 L 783.5247132047081 59.43307050004484 L 783.5868100684979 59.32897721135367 L 783.6512064588125 59.22516983445505 L 783.7178959360663 59.12165875000019 L 783.7868718313671 59.01845430901127 L 783.8581272471829 58.91556683184637 L 783.9316550580315 58.81300660716748 L 784.0074479111931 58.7107838909116 L 784.0854982274456 58.60890890526517 L 784.1657982018223 58.507391837641855 L 784.2483398043927 58.406242839663825 L 784.3331147810654 58.30547202614659 L 784.4201146544134 58.205089474087515 L 784.5093307245218 58.105105221658164 L 784.6007540698579 58.00552926720046 L 784.6943755481634 57.90637156822687 L 784.7901857973684 57.807642040424646 L 784.888175236528 57.709350556664305 L 784.9883340667799 57.61150694601232 L 785.0906522723244 57.514120992748204 L 785.1951196214262 57.417202435386145 L 785.3017256674377 57.320760965701105 L 785.410459749843 57.224806227759686 L 785.5213109953243 57.12934781695572 L 785.6342683188496 57.03439527905074 L 785.7493204247808 56.93995810921942 L 785.8664558080029 56.84604575110002 L 785.9856627550753 56.75266759585011 L 786.1069293454027 56.65983298120741 L 786.2302434524272 56.567551190555996 L 786.3555927448406 56.47583145199805 L 786.4829646878183 56.384682937430995 L 786.6123465442721 56.29411476163032 L 786.7437253761242 56.20413598133814 L 786.8770880456008 56.1147555943575 L 787.0124212165462 56.02598253865261 L 787.149711355756 55.937825691455075 L 787.2889447343308 55.85029386837614 L 787.4301074290487 55.763395822525176 L 787.5731853237578 55.677140243634355 L 787.7181641107879 55.59153575718968 L 787.8650292923812 55.50659092356846 L 788.0137661821419 55.42231423718327 L 788.1643599065048 55.33871412563253 L 788.3167954062233 55.25579894885771 L 788.471057437874 55.1735769983074 L 788.6271305753827 55.092056496108135 L 788.7849992115655 55.01124559424221 L 788.9446475596905 54.93115237373246 L 789.1060596550556 54.851784843834196 L 789.2692193565861 54.77315094123426 L 789.4341103484476 54.6952585292574 L 789.6007161416785 54.61811539707989 L 789.7690200758383 54.54172925895067 L 789.9390053206736 54.46610775341989 L 790.1106548778018 54.391258442575094 L 790.2839515824103 54.317188811284986 L 790.4588781049728 54.24390626645098 L 790.635416952983 54.171418136266475 L 790.813550472703 54.09973166948409 L 790.9932608509296 54.028854034690774 L 791.1745301167745 53.95879231959093 L 791.3573401434621 53.88955353029769 L 791.5416726501423 53.82114459063227 L 791.7275092037181 53.753572341431656 L 791.9148312206887 53.68684353986444 L 792.1036199690086 53.62096485875517 L 792.2938565699604 53.55594288591707 L 792.4855220000426 53.49178412349323 L 792.6785970928717 53.42849498730643 L 792.8730625410993 53.366081806217544 L 793.0688988983429 53.304550821492676 L 793.2660865811297 53.24390818617902 L 793.464605870856 53.18415996448957 L 793.664436915758 53.12531213119671 L 793.8655597328977 53.067370571034715 L 794.0679542101614 53.01034107811134 L 794.2716001082697 52.95422935532834 L 794.4764770628025 52.89904101381123 L 794.6825645862351 52.84478157234818 L 794.889842069987 52.79145645683812 L 795.0982887864825 52.73907099974815 L 795.3078838912237 52.687630439580346 L 795.5186064248746 52.637139920347835 L 795.7304353153577 52.58760449106049 L 795.9433493799603 52.53902910521993 L 796.1573273274535 52.49141862032429 L 796.3723477602207 52.444777797382365 L 796.5883891763979 52.399111300437596 L 796.8054299720234 52.354423696101605 L 797.0234484431987 52.3107194530976 L 797.2424227882583 52.26800294181345 L 797.4623311099501 52.2262784338647 L 797.6831514176253 52.18555010166736 L 797.9048616294369 52.14582201802072 L 798.1274395745488 52.10709815570004 L 798.3508629953518 52.06938238705927 L 798.57510954969 52.032678483643856 L 798.8001568130949 51.996990115813546 L 799.0259822810276 51.96232085237539 L 799.2525633711297 51.928674160226834 L 799.4798774254808 51.89605340400906 L 799.7079017128649 51.8644618457705 L 799.9366134310434 51.833902644640645 L 800.165989709035 51.80437885651416 L 800.3960076094031 51.775893433745246 L 800.6266441305493 51.74844922485244 L 800.8578762090136 51.722048974233765 L 801.089680721781 51.69669532189228 L 801.3220344885933 51.672390803172085 L 801.5549142742675 51.649137848504814 L 801.7882967910191 51.626938783166544 L 802.0221587007909 51.60579582704531 L 802.2564766175867 51.58571109441911 L 802.4912271098102 51.56668659374447 L 802.7263867026078 51.54872422745561 L 802.9619318802162 51.53182579177417 L 803.1978390883138 51.515992976529645 L 803.4340847363766 51.50122736499037 L 803.6706452000363 51.4875304337052 L 803.9074968234441 51.47490355235584 L 804.1446159216348 51.4633479836199 L 804.3819787828962 51.45286488304463 L 804.61956167114 51.443455298931354 L 804.8573408282753 51.43512017223063 L 805.0952924765846 51.4278603364482 L 805.3333928211014 51.42167651756158 L 805.5716180519895 51.41656933394751 L 805.8099443469246 51.41253929632009 L 806.0483478734756 51.40958680767973 L 806.2868047914884 51.407712163272826 L 806.5252912554703 51.40691555056227 L 806.7637834169733 51.40719704920866 L 807.0022574269801 51.40855663106237 L 807.2406894382885 51.41099416016634 L 807.479055607896 51.414509392769695 L 807.7173320993843 51.419101977352106 L 807.9554950853028 51.42477145465894 L 808.1935207495513 51.431517257747196 L 808.4313852897618 51.43933871204218 L 808.6690649196785 51.44823503540498 L 808.9065358715366 51.45820533821068 L 809.1437743984385 51.4692486234373 L 809.3807567767294 51.48136378676553 L 809.617459308369 51.49454961668913 L 809.8538583233013 51.50880479463608 L 810.089930181822 51.524127895100484 L 810.3256512769416 51.54051738578506 L 810.5609980367473 51.5579716277544 L 810.7959469267591 51.57648887559884 L 811.0304744522839 51.59606727760904 L 811.2645571607646 51.6167048759611 L 811.4981716441254 51.6383996069124 L 811.7312945411124 51.66114930100791 L 811.9639025396306 51.684951683297186 L 812.1959723790736 51.70980437356183 L 812.4274808526511 51.735704886553535 L 812.6584048097086 51.76265063224257 L 812.8887211580428 51.79063891607683 L 813.1184068662108 51.81966693925126 L 813.3474389658331 51.849731798987726 L 813.5757945538908 51.88083048882531 L 813.8034507950152 51.91295989892094 L 814.030384923772 51.94611681636038 L 814.2565742469374 51.980297925479526 L 814.4819961457677 52.01549980819594 L 814.7066280782606 52.0517189443507 L 814.9304475814102 52.08895171206036 L 815.1534322734528 52.127194388079175 L 815.3755598561048 52.16644314817141 L 815.5968081167933 52.20669406749378 L 815.8171549308764 52.247943120987884 L 816.0365782638563 52.29018618378274 L 816.2550561735827 52.33341903160728 L 816.4725668124466 52.37763734121275 L 816.6890884295655 52.422836690805035 L 816.9045993729578 52.46901256048684 L 817.1190780917091 52.516160332709674 L 817.3325031381261 52.564275292735616 L 817.544853169882 52.613352629108746 L 817.7561069521507 52.663387434136325 L 817.9662433597299 52.71437470437956 L 818.1752413791539 52.7663093411539 L 818.3830801107952 52.819186151038956 L 818.5897387709534 52.8729998463978 L 818.7951966939352 52.92774504590574 L 818.9994333341191 52.983416275088445 L 819.2024282680114 53.040007966869396 L 819.404161196288 53.09751446212657 L 819.6046119458241 53.15593001025836 L 819.8037604717117 53.21524876975863 L 820.0015868592643 53.27546480880087 L 820.198071326008 53.33657210583136 L 820.3931942236597 53.3985645501713 L 820.5869360400925 53.461435942627936 L 820.7792774012859 53.52517999611441 L 820.9701990732643 53.58979033627848 L 821.1596819640195 53.655260502139996 L 821.3477071254204 53.721583946736914 L 821.5342557551074 53.78875403778004 L 821.7193091983731 53.85676405831625 L 821.9028489500274 53.92560720740017 L 822.0848566562481 53.995276600774254 L 822.2653141164162 54.065765271557225 L 822.4442032849361 54.13706617094075 L 822.6215062730398 54.2091721688943 L 822.7972053505766 54.28207605487816 L 822.971282947785 54.35577053856451 L 823.1437216570503 54.43024825056637 L 823.3145042346453 54.50550174317461 L 823.4836136024545 54.581523491102686 L 823.6510328496821 54.658305892239156 L 823.816745234543 54.73584126840789 L 823.9807341859366 54.81412186613588 L 824.1429833051046 54.89313985742859 L 824.3034763672703 54.97288734055273 L 824.4621973232611 55.05335634082646 L 824.6191303011136 55.1345388114168 L 824.774259607661 55.21642663414435 L 824.9275697301018 55.29901162029506 L 825.0790453375515 55.38228551143916 L 825.2286712825756 55.46623998025691 L 825.3764326027044 55.55086663137139 L 825.5223145219289 55.63615700218803 L 825.6663024521788 55.722102563740805 L 825.808381994781 55.80869472154519 L 825.9485389418998 55.89592481645755 L 826.086759277957 55.98378412554111 L 826.2230291810343 56.07226386293816 L 826.3573350242551 56.1613551807487 L 826.4896633771469 56.251049169915184 L 826.6200010069846 56.34133686111345 L 826.7483348801139 56.4322092256496 L 826.8746521632546 56.52365717636293 L 826.9989402247833 56.615671568534566 L 827.1211866359977 56.70824320080196 L 827.2413791723584 56.80136281607904 L 827.3595058147121 56.89502110248188 L 827.4755547504927 56.98920869425987 L 827.5895143749036 57.083916172732344 L 827.7013732920773 57.17913406723036 L 827.8111203162151 57.27485285604382 L 827.9187444727063 57.37106296737362 L 828.0242349992247 57.467754780288786 L 828.1275813468058 57.56491862568861 L 828.2287731809007 57.662544787269525 L 828.3278003824106 57.76062350249672 L 828.4246530486976 57.859144963580405 L 828.5193214945759 57.95809931845658 L 828.6117962532799 58.05747667177222 L 828.7020680774107 58.15726708587479 L 828.790127939861 58.257460581806065 L 828.8759670347181 58.358047140299924 L 828.9595767781441 58.459016702784346 L 829.040948809234 58.56035917238722 L 829.1200749908529 58.66206441494605 L 829.1969474104484 58.764122260021324 L 829.2715583808425 58.866522501913586 L 829.3439004410006 58.96925490068398 L 829.4139663567768 59.072309183178234 L 829.4817491216378 59.17567504405398 L 829.5472419573638 59.279342146811274 L 829.6104383147256 59.38330012482622 L 829.6713318741404 59.48753858238766 L 829.7299165463028 59.59204709573668 L 829.7861864727944 59.69681521410906 L 829.8401360266696 59.80183246078026 L 829.8917598130179 59.907088334113126 L 829.9410526695035 60.012572308608036 L 829.9880096668821 60.11827383595545 L 830.032626109493 60.22418234609071 L 830.0748975357291 60.33028724825106 L 830.1148197184829 60.43657793203471 L 830.1523886655696 60.54304376846186 L 830.1876006201255 60.64967411103757 L 830.2204520609848 60.75645829681646 L 830.2509397030308 60.86338564746893 L 830.2790604975245 60.97044547034902 L 830.3048116324098 61.07762705956367 L 830.328190532595 61.184919697043256 L 830.3491948602093 61.29231265361346 L 830.3678225148376 61.399795190068104 L 830.3840716337298 61.50735655824312 L 830.3979405919878 61.614986002091314 L 830.409428002727 61.72267275875801 L 830.4185327172162 61.830406059657264 L 830.4252538249914 61.93817513154877 L 830.4295906539473 62.04596919761514 L 830.4315427704049 62.15377747853961 M 830.4316637604609 96.4920458931 L 830.4304713005572 96.59985643801662 L 830.4268940400912 96.70765620196859 L 830.4209323367859 96.81543440506935 L 830.4125867868065 96.9231802695884 L 830.4018582247013 97.03088302102908 L 830.3887477233175 97.138531889206 L 830.3732565936942 97.24611610932205 L 830.3553863849316 97.35362492304485 L 830.3351388840356 97.46104757958265 L 830.3125161157394 97.5683733367593 L 830.287520342301 97.67559146208852 L 830.260154063277 97.78269123384712 L 830.2304200152724 97.88966194214719 L 830.1983211716673 97.99649289000702 L 830.1638607423192 98.10317339442086 L 830.1270421732424 98.20969278742717 L 830.0878691462631 98.31604041717543 L 830.0463455786513 98.42220564899125 L 830.0024756227293 98.52817786643996 L 829.9562636654559 98.6339464723881 L 829.9077143279886 98.73950089006323 L 829.8568324652206 98.84483056411152 L 829.8036231652957 98.94992496165337 L 829.7480917490994 99.05477357333659 L 829.6902437697274 99.15936591438738 L 829.6300850119293 99.2636915256588 L 829.5676214915306 99.36773997467667 L 829.5028594548314 99.47150085668278 L 829.4358053779814 99.5749637956754 L 829.3664659663325 99.67811844544686 L 829.2948481537678 99.78095449061813 L 829.2209591020091 99.8834616476704 L 829.1448061999001 99.98562966597338 L 829.0663970626673 100.08744832881038 L 828.9857395311592 100.18890745439998 L 828.9028416710618 100.28999689691415 L 828.8177117720919 100.39070654749288 L 828.7303583471685 100.49102633525506 L 828.6407901315613 100.59094622830548 L 828.5490160820173 100.69045623473812 L 828.4550453758648 100.78954640363527 L 828.3588874100963 100.8882068260626 L 828.2605518004282 100.9864276360601 L 828.1600483803393 101.0841990116286 L 828.0573872000882 101.18151117571202 L 827.9525785257072 101.27835439717506 L 827.8456328379763 101.37471899177628 L 827.7365608313753 101.4705953231365 L 827.625373413014 101.56597380370249 L 827.5120817015414 101.6608448957057 L 827.3966970260345 101.75519911211595 L 827.2792309248645 101.84902701759025 L 827.1596951445435 101.94231922941623 L 827.0381016385503 102.03506641845047 L 826.9144625661339 102.12725931005133 L 826.7887902910985 102.2188886850065 L 826.6610973805671 102.30994538045483 L 826.531396603724 102.40042029080266 L 826.3997009305391 102.49030436863434 L 826.2660235304699 102.579588625617 L 826.1303777711449 102.66826413339936 L 825.9927772170271 102.75632202450451 L 825.8532356280572 102.84375349321674 L 825.7117669582778 102.93054979646202 L 825.5683853544381 103.01670225468237 L 825.4231051545789 103.10220225270375 L 825.2759408865991 103.18704124059762 L 825.126907266803 103.27121073453588 L 824.976019198428 103.3547023176393 L 824.8232917701557 103.4375076408191 L 824.6687402546015 103.51961842361202 L 824.512380106788 103.60102645500817 L 824.3542269625997 103.68172359427226 L 824.1942966372194 103.7617017717576 L 824.0326051235462 103.84095298971312 L 823.8691685905969 103.91946932308304 L 823.7040033818884 103.99724292029944 L 823.537126013804 104.07426600406745 L 823.3685531739416 104.15053087214287 L 823.1983017194444 104.22602989810241 L 823.0263886753163 104.30075553210642 L 822.8528312327182 104.37470030165377 L 822.6776467472499 104.44785681232914 L 822.5008527372139 104.52021774854238 L 822.3224668818639 104.59177587426021 L 822.1425070196366 104.66252403372968 L 821.9609911463685 104.73245515219378 L 821.7779374134956 104.80156223659897 L 821.5933641262386 104.86983837629438 L 821.4072897417724 104.93727674372295 L 821.2197328673805 105.0038705951041 L 821.0307122585938 105.06961327110824 L 820.8402468173159 105.13449819752252 L 820.6483555899321 105.19851888590837 L 820.4550577654053 105.26166893425032 L 820.2603726733568 105.32394202759615 L 820.0643197821336 105.38533193868841 L 819.8669186968614 105.44583252858716 L 819.6681891574843 105.50543774728384 L 819.4681510367906 105.56414163430621 L 819.2668243384256 105.62193831931454 L 819.0642291948916 105.67882202268845 L 818.8603858655338 105.73478705610502 L 818.6553147345155 105.78982782310756 L 818.4490363087788 105.84393881966523 L 818.2415712159944 105.89711463472344 L 818.0329402024987 105.94934995074503 L 817.8231641312193 106.00063954424192 L 817.6122639795883 106.0509782862975 L 817.4002608374452 106.1003611430795 L 817.1871759049276 106.14878317634341 L 816.9730304903512 106.19623954392625 L 816.7578460080789 106.2427255002308 L 816.5416439763796 106.2882363967002 L 816.3244460152765 106.33276768228268 L 816.1062738443845 106.37631490388682 L 815.887149280739 106.41887370682676 L 815.6670942366136 106.46043983525765 L 815.4461307173295 106.50100913260128 L 815.2242808190546 106.54057754196174 L 815.0015667265935 106.57914110653107 L 814.77801071117 106.61669596998493 L 814.5536351281996 106.65323837686829 L 814.3284624150533 106.6887646729709 L 814.1025150888149 106.72327130569276 L 813.8758157440287 106.75675482439937 L 813.6483870504403 106.78921188076673 L 813.4202517507294 106.82063922911627 L 813.1914326582362 106.85103372673933 L 812.9619526546788 106.8803923342115 L 812.7318346878668 106.90871211569649 L 812.5011017694047 106.93599023923973 L 812.2697769723924 106.96222397705162 L 812.0378834291165 106.98741070578025 L 811.8054443287384 107.0115479067737 L 811.5724829149743 107.03463316633201 L 811.3390224837714 107.05666417594847 L 811.1050863809784 107.07763873254045 L 810.8706980000104 107.09755473866979 L 810.6358807795104 107.11641020275246 L 810.4006582010048 107.13420323925777 L 810.1650537865552 107.1509320688969 L 809.9290910964069 107.16659501880085 L 809.6927937266322 107.18119052268763 L 809.4561853067712 107.19471712101905 L 809.2192894974686 107.20717346114655 L 808.9821299881081 107.21855829744648 L 808.7447304944429 107.22887049144471 L 808.5071147562245 107.23810901193042 L 808.2693065348288 107.24627293505928 L 808.0313296108798 107.25336144444577 L 807.7932077818714 107.25937383124486 L 807.5549648597882 107.26430949422287 L 807.3166246687239 107.26816793981763 L 807.0782110424989 107.27094878218779 L 806.8397478222771 107.27265174325143 L 806.601258854182 107.27327665271386 L 806.3627679869114 107.27282344808465 L 806.1242990693536 107.27129217468391 L 805.8858759482014 107.26868298563768 L 805.6475224655684 107.2649961418627 L 805.409262456604 107.26023201204026 L 805.1711197471108 107.2543910725794 L 804.9331181511611 107.24747390756917 L 804.6952814687163 107.23948120872033 L 804.4576334832464 107.23041377529609 L 804.2201979593518 107.22027251403225 L 803.9829986403871 107.20905843904646 L 803.7460592460867 107.1967726717369 L 803.5094034701924 107.18341644067004 L 803.2730549780846 107.16899108145788 L 803.0370374044155 107.15349803662431 L 802.801374350746 107.1369388554609 L 802.5660893831848 107.11931519387196 L 802.3312060300328 107.10062881420897 L 802.0967477794295 107.08088158509435 L 801.8627380770047 107.0600754812345 L 801.6292003235333 107.03821258322252 L 801.3961578725964 107.01529507732995 L 801.1636340282447 106.99132525528832 L 800.9316520426688 106.96630551405984 L 800.7002351138742 106.94023835559778 L 800.4694063833607 106.91312638659626 L 800.2391889338091 106.88497231822961 L 800.0096057867726 106.85577896588119 L 799.7806799003743 106.8255492488619 L 799.5524341670123 106.79428619011826 L 799.3248914110696 106.76199291593008 L 799.0980743866323 106.72867265559789 L 798.8720057752139 106.69432874111995 L 798.6467081834869 106.65896460685907 L 798.4222041410228 106.62258378919921 L 798.1985160980389 106.58518992619184 L 797.975666423153 106.5467867571921 L 797.7536774011469 106.50737812248485 L 797.5325712307379 106.46696796290075 L 797.3123700223584 106.42556031942208 L 797.0930957959463 106.38315933277867 L 796.8747704787411 106.33976924303387 L 796.6574159030927 106.29539438916049 L 796.4410538042777 106.25003920860692 L 796.2257058183253 106.20370823685344 L 796.0113934798551 106.15640610695861 L 795.798138219922 106.108137549096 L 795.5859613638745 106.05890739008117 L 795.3748841292212 106.00872055288902 L 795.1649276235098 105.9575820561614 L 794.9561128422159 105.90549701370541 L 794.7484606666436 105.85247063398188 L 794.5419918618375 105.79850821958458 L 794.3367270745058 105.74361516670999 L 794.1326868309563 105.68779696461766 L 793.9298915350433 105.63105919508126 L 793.7283614661276 105.57340753183051 L 793.5281167770479 105.51484773998365 L 793.3291774921063 105.45538567547108 L 793.1315635050655 105.3950272844497 L 792.9352945771597 105.33377860270829 L 792.7403903351178 105.27164575506403 L 792.5468702692019 105.20863495474987 L 792.3547537312571 105.14475250279335 L 792.1640599327774 105.08000478738643 L 791.9748079429834 105.01439828324668 L 791.7870166869164 104.94793955096986 L 791.6007049435458 104.8806352363738 L 791.4158913438904 104.8124920698339 L 791.2325943691563 104.74351686560999 L 791.0508323488882 104.67371652116503 L 790.8706234591366 104.6030980164753 L 790.6919857206403 104.53166841333243 L 790.5149369970244 104.4594348546372 L 790.3394949930135 104.38640456368528 L 790.1656772526621 104.31258484344491 L 789.9935011575992 104.2379830758266 L 789.8229839252908 104.16260672094495 L 789.6541426073182 104.08646331637262 L 789.4869940876723 104.00956047638662 L 789.321555081066 103.93190589120688 L 789.1578421312618 103.85350732622719 L 788.9958716094185 103.77437262123871 L 788.8356597124532 103.694509689646 L 788.677222461422 103.61392651767568 L 788.5205756999183 103.53263116357778 L 788.3657350924874 103.45063175681996 L 788.212716123061 103.36793649727457 L 788.0615340934088 103.28455365439865 L 787.9122041216075 103.20049156640701 L 787.76474114053 103.1157586394384 L 787.6191598963514 103.03036334671489 L 787.475474947075 102.94431422769459 L 787.3337006610758 102.85761988721772 L 787.1938512156644 102.77028899464605 L 787.0559405956686 102.68233028299609 L 786.9199825920356 102.59375254806568 L 786.7859908004525 102.50456464755453 L 786.6539786199868 102.41477550017834 L 786.5239592517464 102.32439408477703 L 786.3959456975599 102.23342943941684 L 786.269950758676 102.14189066048647 L 786.1459870344837 102.04978690178756 L 786.024066921252 101.95712737361922 L 785.9042026108906 101.86392134185704 L 785.7864060897307 101.77017812702654 L 785.6706891373262 101.67590710337106 L 785.557063325276 101.58111769791444 L 785.4455400160666 101.48581938951821 L 785.336130361936 101.39002170793381 L 785.2288453037582 101.29373423284954 L 785.12369556995 101.19696659293271 L 785.020691675397 101.09972846486664 L 784.9198439204026 101.00202957238312 L 784.8211623896585 100.90387968528998 L 784.7246569512356 100.80528861849413 L 784.6303372555972 100.70626623102011 L 784.5382127346342 100.60682242502413 L 784.448292600722 100.50696714480392 L 784.360585845799 100.40671037580431 L 784.2751012404677 100.30606214361863 L 784.1918473331175 100.20503251298624 L 784.1108324490694 100.103631586786 L 784.0320646897446 100.00186950502604 L 783.9555519318534 99.89975644382972 L 783.8813018266076 99.79730261441809 L 783.809321798956 99.69451826208869 L 783.7396190468413 99.59141366519111 L 783.6722005404808 99.48799913409913 L 783.6070730216688 99.38428501017967 L 783.5442430031029 99.28028166475868 L 783.4837167677327 99.17599949808405 L 783.4255003681312 99.07144893828554 L 783.36959962589 98.96664044033201 L 783.3160201310366 98.86158448498593 L 783.2647672414757 98.75629157775525 L 783.2158460824539 98.65077224784297 L 783.1692615460461 98.54503704709414 L 783.1250182906672 98.43909654894075 L 783.0831207406058 98.33296134734431 L 783.043573085582 98.22664205573652 L 783.0063792803284 98.12014930595798 L 782.9715430441945 98.01349374719489 L 782.9390678607748 97.90668604491427 L 782.9089569775608 97.79973687979731 L 782.8812134056155 97.69265694667143 L 782.8558399192732 97.58545695344071 L 782.8328390558612 97.47814762001512 L 782.8122131154468 97.37073967723859 L 782.7939641606066 97.26324386581588 L 782.7780940162212 97.15567093523856 L 782.7646042692917 97.04803164271006 L 782.7534962687814 96.94033675206991 L 782.7447711254814 96.83259703271744 L 782.7384297118984 96.7248232585348 L 782.7344726621689 96.6170262068096 L 782.7329003719941 96.50921665715717" stroke-miterlimit="10" stroke-width="2.7769845610000004" stroke-dasharray=""/></g><g><g/><text fill="black" stroke="none" font-family="sans-serif" font-size="11pt" font-style="normal" font-weight="normal" text-decoration="normal" x="787.8421164908008" y="124.800953212" text-anchor="start" dominant-baseline="alphabetic" xml:space="preserve">Redis</text></g></g><g><g><g><rect fill="white" stroke="none" x="145.6782400618815" y="162.371920802" width="151.55761970582031" height="21.23576429"/></g><text fill="black" stroke="none" font-family="sans-serif" font-size="11pt" font-style="normal" font-weight="normal" text-decoration="normal" x="148.12852055688148" y="177.07360377199998" text-anchor="start" dominant-baseline="alphabetic" xml:space="preserve">User logs into platform</text></g><g><path fill="none" stroke="black" paint-order="fill stroke markers" d=" M 103.13065152878906 183.607685092 L 326.3341309171276 183.607685092" stroke-miterlimit="10" stroke-width="1.3612669416666667" stroke-dasharray=""/><g transform="translate(339.78344830079425,183.607685092) translate(-339.78344830079425,-183.607685092)"><path fill="black" stroke="none" paint-order="stroke fill markers" d=" M 326.17077888412757 176.80135038366666 L 339.78344830079425 183.607685092 L 326.17077888412757 190.41401980033334 Z"/></g></g><path fill="white" stroke="black" paint-order="fill stroke markers" d=" M 8.16760165 208.11049004200004 L 183.39201843757812 208.11049004200004 L 198.09370140757812 222.81217301200004 L 198.09370140757812 278.351864232 L 8.16760165 278.351864232 L 8.16760165 208.11049004200004 M 183.39201843757812 208.11049004200004 L 183.39201843757812 222.81217301200004 L 198.09370140757812 222.81217301200004" stroke-miterlimit="10" stroke-width="1.3612669416666667" stroke-dasharray=""/><g><text fill="black" stroke="none" font-family="sans-serif" font-size="11pt" font-style="normal" font-weight="normal" text-decoration="normal" x="31.036886269999997" y="230.979774662" text-anchor="start" dominant-baseline="alphabetic" xml:space="preserve">When a user logs in</text><text fill="black" stroke="none" font-family="sans-serif" font-size="11pt" font-style="normal" font-weight="bold" text-decoration="normal" x="31.036886269999997" y="247.314977962" text-anchor="start" dominant-baseline="alphabetic" xml:space="preserve">onOnline</text><text fill="black" stroke="none" font-family="sans-serif" font-size="11pt" font-style="normal" font-weight="normal" text-decoration="normal" x="94.55875211472656" y="247.314977962" text-anchor="start" dominant-baseline="alphabetic" xml:space="preserve"> is triggered </text><text fill="black" stroke="none" font-family="sans-serif" font-size="11pt" font-style="normal" font-weight="normal" text-decoration="normal" x="31.036886269999997" y="263.650181262" text-anchor="start" dominant-baseline="alphabetic" xml:space="preserve">automatically</text></g><g><g><rect fill="white" stroke="none" x="371.2071888724609" y="302.854669182" width="180.319262161875" height="21.23576429"/></g><text fill="black" stroke="none" font-family="sans-serif" font-size="11pt" font-style="normal" font-weight="normal" text-decoration="normal" x="373.6574693674609" y="317.556352152" text-anchor="start" dominant-baseline="alphabetic" xml:space="preserve">Trigger </text><text fill="black" stroke="none" font-family="sans-serif" font-size="11pt" font-style="normal" font-weight="bold" text-decoration="normal" x="423.62164173074217" y="317.556352152" text-anchor="start" dominant-baseline="alphabetic" xml:space="preserve">updateUserStatus</text></g><g><path fill="none" stroke="black" paint-order="fill stroke markers" d=" M 339.78344830079425 324.09043347200003 L 569.5008742223359 324.09043347200003" stroke-miterlimit="10" stroke-width="1.3612669416666667" stroke-dasharray=""/><g transform="translate(582.9501916060026,324.09043347200003) translate(-582.9501916060026,-324.09043347200003)"><path fill="black" stroke="none" paint-order="stroke fill markers" d=" M 569.3375221893359 317.2840987636667 L 582.9501916060026 324.09043347200003 L 569.3375221893359 330.89676818033337 Z"/></g></g><path fill="white" stroke="black" paint-order="fill stroke markers" d=" M 478.6134921300456 348.593238422 L 672.5852081119597 348.593238422 L 687.2868910819597 363.294921392 L 687.2868910819597 402.499409312 L 478.6134921300456 402.499409312 L 478.6134921300456 348.593238422 M 672.5852081119597 348.593238422 L 672.5852081119597 363.294921392 L 687.2868910819597 363.294921392" stroke-miterlimit="10" stroke-width="1.3612669416666667" stroke-dasharray=""/><g><text fill="black" stroke="none" font-family="sans-serif" font-size="11pt" font-style="normal" font-weight="normal" text-decoration="normal" x="501.48277675004556" y="371.462523042" text-anchor="start" dominant-baseline="alphabetic" xml:space="preserve">Status is set as </text><text fill="black" stroke="none" font-family="sans-serif" font-size="11pt" font-style="normal" font-weight="bold" text-decoration="normal" x="604.9616128096159" y="371.462523042" text-anchor="start" dominant-baseline="alphabetic" xml:space="preserve">ONLINE</text><text fill="black" stroke="none" font-family="sans-serif" font-size="11pt" font-style="normal" font-weight="normal" text-decoration="normal" x="660.3445931562956" y="371.462523042" text-anchor="start" dominant-baseline="alphabetic" xml:space="preserve"> </text><text fill="black" stroke="none" font-family="sans-serif" font-size="11pt" font-style="normal" font-weight="normal" text-decoration="normal" x="501.48277675004556" y="387.797726342" text-anchor="start" dominant-baseline="alphabetic" xml:space="preserve">when user logs in.</text></g><g><g><rect fill="white" stroke="none" x="607.5808108397787" y="427.002214262" width="174.37083686890625" height="21.23576429"/></g><text fill="black" stroke="none" font-family="sans-serif" font-size="11pt" font-style="normal" font-weight="normal" text-decoration="normal" x="610.0310913347787" y="441.703897232" text-anchor="start" dominant-baseline="alphabetic" xml:space="preserve">Update status as </text><text fill="black" stroke="none" font-family="sans-serif" font-size="11pt" font-style="normal" font-weight="bold" text-decoration="normal" x="724.1183868670053" y="441.703897232" text-anchor="start" dominant-baseline="alphabetic" xml:space="preserve">ONLINE</text></g><g><path fill="none" stroke="black" paint-order="fill stroke markers" d=" M 582.9501916060026 448.237978552 L 793.1329495587943 448.237978552" stroke-miterlimit="10" stroke-width="1.3612669416666667" stroke-dasharray=""/><g transform="translate(806.5822669424609,448.237978552) translate(-806.5822669424609,-448.237978552)"><path fill="black" stroke="none" paint-order="stroke fill markers" d=" M 792.9695975257943 441.4316438436667 L 806.5822669424609 448.237978552 L 792.9695975257943 455.04431326033335 Z"/></g></g><path fill="white" stroke="black" paint-order="fill stroke markers" d=" M 683.4803926007813 472.740783502 L 914.9824583141407 472.740783502 L 929.6841412841407 487.442466472 L 929.6841412841407 526.646954392 L 683.4803926007813 526.646954392 L 683.4803926007813 472.740783502 M 914.9824583141407 472.740783502 L 914.9824583141407 487.442466472 L 929.6841412841407 487.442466472" stroke-miterlimit="10" stroke-width="1.3612669416666667" stroke-dasharray=""/><g><text fill="black" stroke="none" font-family="sans-serif" font-size="11pt" font-style="normal" font-weight="normal" text-decoration="normal" x="706.3496772207812" y="495.610068122" text-anchor="start" dominant-baseline="alphabetic" xml:space="preserve">The status will be added to </text><text fill="black" stroke="none" font-family="sans-serif" font-size="11pt" font-style="normal" font-weight="normal" text-decoration="normal" x="706.3496772207812" y="511.94527142199996" text-anchor="start" dominant-baseline="alphabetic" xml:space="preserve">the existing session hash entry</text></g><g><g><rect fill="white" stroke="none" x="602.2801821776693" y="551.1497593419999" width="184.972094193125" height="21.23576429"/></g><text fill="black" stroke="none" font-family="sans-serif" font-size="11pt" font-style="normal" font-weight="normal" text-decoration="normal" x="604.7304626726693" y="565.8514423119999" text-anchor="start" dominant-baseline="alphabetic" xml:space="preserve">Set expiration time to </text><text fill="black" stroke="none" font-family="sans-serif" font-size="11pt" font-style="normal" font-weight="bold" text-decoration="normal" x="746.5127960466928" y="565.8514423119999" text-anchor="start" dominant-baseline="alphabetic" xml:space="preserve">2 min</text></g><g><path fill="none" stroke="black" paint-order="fill stroke markers" d=" M 582.9501916060026 572.385523632 L 793.1329495587943 572.385523632" stroke-miterlimit="10" stroke-width="1.3612669416666667" stroke-dasharray=""/><g transform="translate(806.5822669424609,572.385523632) translate(-806.5822669424609,-572.385523632)"><path fill="black" stroke="none" paint-order="stroke fill markers" d=" M 792.9695975257943 565.5791889236666 L 806.5822669424609 572.385523632 L 792.9695975257943 579.1918583403333 Z"/></g></g><path fill="white" stroke="black" paint-order="fill stroke markers" d=" M 625.6278459088868 596.888328582 L 972.8350050060352 596.888328582 L 987.5366879760352 611.590011552 L 987.5366879760352 650.794499472 L 625.6278459088868 650.794499472 L 625.6278459088868 596.888328582 M 972.8350050060352 596.888328582 L 972.8350050060352 611.590011552 L 987.5366879760352 611.590011552" stroke-miterlimit="10" stroke-width="1.3612669416666667" stroke-dasharray=""/><g><text fill="black" stroke="none" font-family="sans-serif" font-size="11pt" font-style="normal" font-weight="normal" text-decoration="normal" x="648.4971305288867" y="619.7576132019999" text-anchor="start" dominant-baseline="alphabetic" xml:space="preserve">Keep in mind that this expiration time </text><text fill="black" stroke="none" font-family="sans-serif" font-size="11pt" font-style="normal" font-weight="normal" text-decoration="normal" x="648.4971305288867" y="636.0928165019999" text-anchor="start" dominant-baseline="alphabetic" xml:space="preserve">should be aligned with the </text><text fill="black" stroke="none" font-family="sans-serif" font-size="11pt" font-style="normal" font-weight="bold" text-decoration="normal" x="822.0976401724414" y="636.0928165019999" text-anchor="start" dominant-baseline="alphabetic" xml:space="preserve">global</text><text fill="black" stroke="none" font-family="sans-serif" font-size="11pt" font-style="normal" font-weight="normal" text-decoration="normal" x="865.2615806021289" y="636.0928165019999" text-anchor="start" dominant-baseline="alphabetic" xml:space="preserve"> expiration time</text></g><g><g><rect fill="white" stroke="none" x="359.1134388724609" y="675.2973044219999" width="204.506762161875" height="21.23576429"/></g><text fill="black" stroke="none" font-family="sans-serif" font-size="11pt" font-style="normal" font-weight="normal" text-decoration="normal" x="361.5637193674609" y="689.9989873919999" text-anchor="start" dominant-baseline="alphabetic" xml:space="preserve">Notify caller with current status</text></g><g><path fill="none" stroke="black" paint-order="fill stroke markers" d=" M 582.9501916060026 696.5330687119999 L 353.2327656844609 696.5330687119999" stroke-miterlimit="10" stroke-width="1.3612669416666667" stroke-dasharray=""/><g transform="translate(339.78344830079425,696.5330687119999) translate(-339.78344830079425,-696.5330687119999)"><path fill="black" stroke="none" paint-order="stroke fill markers" d=" M 353.3961177174609 689.7267340036666 L 339.78344830079425 696.5330687119999 L 353.3961177174609 703.3394034203333 Z"/></g></g><g><g><rect fill="white" stroke="none" x="122.4606421004557" y="721.0358736619999" width="197.99281562867188" height="21.23576429"/></g><text fill="black" stroke="none" font-family="sans-serif" font-size="11pt" font-style="normal" font-weight="normal" text-decoration="normal" x="124.9109225954557" y="735.7375566319998" text-anchor="start" dominant-baseline="alphabetic" xml:space="preserve">Notify user with current status</text></g><g><path fill="none" stroke="black" paint-order="fill stroke markers" d=" M 339.78344830079425 742.2716379519999 L 116.57996891245573 742.2716379519999" stroke-miterlimit="10" stroke-width="1.3612669416666667" stroke-dasharray=""/><g transform="translate(103.13065152878906,742.2716379519999) translate(-103.13065152878906,-742.2716379519999)"><path fill="black" stroke="none" paint-order="stroke fill markers" d=" M 116.74332094545572 735.4653032436665 L 103.13065152878906 742.2716379519999 L 116.74332094545572 749.0779726603332 Z"/></g></g></g><g/><g/><g/><g/></g></svg>